<svg version="1.2" xmlns="http://www.w3.org/2000/svg" viewBox="0 0 3619.84 2157.25" width="3619.84" height="2157.25"><style>.a{fill:#b3b3b3;stroke:#000;stroke-linecap:round;stroke-linejoin:round;stroke-width:10}.b{fill:#fff;stroke:#000;stroke-miterlimit:10;stroke-width:10}.c{fill:#f2d751;stroke:#000;stroke-linecap:round;stroke-linejoin:round;stroke-width:9}.d{fill:#3b57ff;stroke:#000;stroke-linecap:round;stroke-linejoin:round;stroke-width:10}.e{fill:#e2b881;stroke:#000;stroke-linecap:round;stroke-linejoin:round;stroke-width:8}.f{fill:#ff6c93;stroke:#000;stroke-linecap:round;stroke-linejoin:round;stroke-width:8}</style><path class="a" d="m2288.2 231.3c0 0-1.5 2.7 5.8 15.2q2.7 4.5 5.5 8.9 2.8 4.5 5.8 8.8 3 4.3 6.2 8.5 3.2 4.1 6.5 8.2c7.7 9.1 84.4 101.7 84.4 101.7 0 0 84 105 121.8 136.6 37.8 31.6 37 5.8 37 5.8 0 0-223.6-293.5-273-293.7z"/><path class="b" d="m2288.2 231.3c0 0 1-8.4 1.1-9.5 0.2-1.2 0.9-4.8 10.3-5.6 9.4-0.9 67.6-6.6 110.3 18.6 42.7 25.3 148.5 155.5 164.1 187 15.6 31.6-24.8 105.6-24.8 105.6 0 0-12.4 4.5-22.7-12.3-10.4-16.8-53.1-92.2-84.5-131.1-31.4-38.9-73.3-82.8-101.6-106.4-22.3-18.6-45.7-34.8-52.2-46.3z"/><path class="c" d="m2386.6 547.8l-39.2 99.5-9.9-19.4-37.4 70.3-12.9-25.6-95.4 106.1 91.9-185.5 15.3 33.8 37.9-45.4 9 20.6 40.7-54.4z"/><path class="c" d="m2228.6 502.3l-77.2 67.6 2-25.1-61.8 41.2 2.9-32.8-122.1 35.8 157.9-113.3-5 42.3 50.1-17.4-3.3 25.6 56.5-23.9z"/><path class="c" d="m2231.7 347.6l-126.9 22.9 17.6-25.3-93.6 4.6 23.2-32.9-157.1-39.1 244.2-20.3-31.4 41.6 66.1 13.2-19.4 25.1 77.3 10.2z"/><path class="c" d="m2489.6 231.3l-42.3-76 18.6-0.2-16.8-67.4 19 1.9-14.3-85.1 51.3 109.1-20.9-3.2 13.2 64.3-24.2-4.7 16.4 61.3z"/><path class="c" d="m2856.4 583.1l-67.8-16.1 13.1-13.1-45.5-28.7 14.4-12.1-52.4-41.1 90.6 29.6-16.4 12.7 41.4 29.4-19.5 14.1 42.1 25.3z"/><path class="c" d="m2330.8 202.2l-66.9-19.2 13.6-12.5-44-30.8 14.9-11.4-50.5-43.5 89.2 33.8-17 11.9 40 31.3-20.2 13.1 40.9 27.3z"/><path class="c" d="m2537.1 527.5l21.8 67.2-9.2 3.5 12.6 63-9 4.7 6.1 77.2-36.5-103.5 14.4-6.3-9.2-57.4 14.6-5.8-5.6-42.6z"/><path class="c" d="m2708.7 75.3l-7.1 62-14.4-5-17.1 52-14.6-3.9-33.6 56.3 7-97.9 22.7 7.2 18.7-45.6 22.7 7.7 15.7-32.8z"/><path class="c" d="m2958 296.8l-60.2 33-5.1-13.2-57.9 19.8-6.1-12.8-72.7 10.8 92.3-55 8.6 20.5 53.2-14.8 8.2 20.7 39.7-9z"/><path class="d" d="m822.5 1208.5l-125.1-77.6 1670.2-799.3-1812.4 601.9 39-137.2-123.3 134.4-23.9-110-25.8 93.3-63.8-121.5-1.3 115.4-109.3-129.2 29.4 145.2-112.4-60.4 79.3 90.7-238.1-50.8 216.1 122.8-132.1 58.1 148.9 7.7-156.9 148.2 208.2-88-48.8 145.2 102.3-99.4-26.7 215.8 109.8-194 39.7 128.6 21.2-117.7 2.9 2.4 6.3-3.1 29.8 65.5 14.4-77.4 113.4 118.6-50.2-159.5 0.7-0.3 218.6 31.6z"/><path class="e" d="m2513.6 533.6c-3.8 4.3-22.6-32.9-34.9-57.7-0.6-12-6.7-13.5-8.6-17.2 0.2-4.6-4.3-29.2-9.5-37.8-30.3-50.1-51.9-66.5-69.1-15.6-3.5 10.6 1.1 30 0.7 50.6-0.4 26.3-13 16.6 31.7 97.3 8.2 14.7 9.1 62.6 64.2 150.4 39.7 63.4 54.5 63.6 105.7 119.3 82.7 90 249.6 343.4 417 556.6 167.4 213.1 182.8 184.9 212.4 222.8 155.3 198.6 411.9 549.6 411.9 549.6l49.9-488.3c-1.7-19.7-170-222.8-227.9-283-15.2-15.9-70-61-92.3-82.5-168.1-161.5-511.4-440-602-538.5-14.3-15.5-18.4-9.6-24.7-19.1-16.1-24.7-37.1-66.1-44.4-201.6-0.7-11.8-1-42.2-2.3-57.3-1.4-15.1-18.5-36.7-26.2-54-10.2-22.9-19.4-62.4-32.8-94.9-10-24.3-15.1-21.5-36.3-31-9.7-4.3-60.5-30.5-72.1-35.1-10.3-4.1-35.3-4.1-36.6-4.7l65.4 163.8 14 64.2c0 0-26.8 13.6-53.2 43.7z"/><path class="f" d="m2395.2 433.6c0 0 3.9-12 26.6-18.8 4.1-1.3 10.6-12 9.1-19.8-2.2-10.7-7.1-27.9-25.8-23.5-5.3 1.3-23.8 15.9-9.9 62.1z"/><path class="e" d="m2663.2 479.1c-2.4-13.6-16.8-30.7-16.8-30.7-41.5-54.3-62.8-103.4-68.6-119.7-5.1-14.7-15.5-29.5-15.5-29.5-6.3-11.4-18.8-9.4-22.4-12-11.3-8.2-43.6-22.7-69.3-36.4-24.4-13-60.2-26-70.1-16.3-3.9 3.8-3.5 18.5 0.8 24.9 18.7 27.9 91.1 73.7 99.9 87.2 3.4 5.1 4.5 40.2 42 84.2 4 27.9 3 37.6 10.9 68-27.7 19.3-40.4 35.3-40.4 35.3"/><path class="f" d="m2399.5 235.3c0.1 0.2 4.3 7.6 6.1 7.6 1.8 0 12.4 0.2 18.8-1.6 6.3-1.9 17.6-1.9 17.6-1.9 0 0-10.9-8.8-32.5-10.8-7.5-0.6-11.7 2.7-10 6.7z"/></svg>