<svg version="1.2" xmlns="http://www.w3.org/2000/svg" viewBox="0 0 3619.36004242969 2156.9639684437566" width="3619.36004242969" height="2156.9639684437566"><style>.a{fill:#b3b3b3;stroke:#000;stroke-linecap:round;stroke-linejoin:round;stroke-width:10}.b{fill:#fff;stroke:#000;stroke-miterlimit:10;stroke-width:10}.c{fill:#f2d751;stroke:#000;stroke-linecap:round;stroke-linejoin:round;stroke-width:10}.d{fill:#e2b881;stroke:#000;stroke-linecap:round;stroke-linejoin:round;stroke-width:8}.e{fill:#ff6c93;stroke:#000;stroke-linecap:round;stroke-linejoin:round;stroke-width:8}.f{fill:#5072ff;stroke:#000;stroke-linecap:round;stroke-linejoin:round;stroke-width:10}</style><path class="a" d="m2287.9 231.3c0 0-1.5 2.7 5.8 15.2q2.7 4.5 5.5 8.9 2.8 4.5 5.8 8.8 3 4.3 6.2 8.5 3.2 4.1 6.5 8.2c7.7 9.1 84.4 101.7 84.4 101.7 0 0 84 105 121.8 136.6 37.8 31.6 37 5.8 37 5.8 0 0-223.6-293.5-273-293.7z"/><path class="b" d="m2287.9 231.3c0 0 1-8.4 1.1-9.5 0.2-1.2 0.9-4.8 10.3-5.6 9.4-0.9 67.6-6.6 110.3 18.6 42.7 25.3 148.5 155.5 164.1 187 15.6 31.6-24.8 105.6-24.8 105.6 0 0-12.4 4.5-22.7-12.3-10.4-16.8-53.1-92.2-84.5-131.1-31.4-38.9-73.3-82.8-101.6-106.4-22.3-18.6-45.7-34.8-52.2-46.3z"/><path class="c" d="m729 1201.3l-31.7-70.5 1670-799.2-1812.1 601.8 46.3-293.1-130.6 290.3-35.9-164.3-13.8 147.6-104.7-210.6 39.6 204.5-86.1-80 6.2 96-190.7-141 157.6 171.3-238.1-50.8 216.1 122.8-200.1 51.9 216.9 13.9-204.9 182.9 256.2-122.8-22.2 94.3 75.7-48.5-113.2 333.5c-3.6 0 196.2-311.7 196.3-311.7l-2.8 197.7 63.7-186.8 2.9 2.4 6.3-3.1 54.6 186-10.4-197.9 80.9 49.4-17.8-90.3 0.7-0.3 164.1 102.6z"/><path class="d" d="m2513.3 533.6c-3.8 4.3-22.6-32.9-34.9-57.7-0.6-12-6.7-13.5-8.6-17.2 0.2-4.6-4.3-29.2-9.5-37.8-30.3-50.1-51.9-66.5-69.1-15.6-3.5 10.6 1.1 30 0.7 50.6-0.4 26.3-13 16.6 31.7 97.3 8.2 14.6 9.1 62.5 64.2 150.3 39.7 63.4 54.5 63.6 105.7 119.3 82.7 90 249.5 343.3 416.9 556.5 167.4 213.1 182.8 184.9 212.4 222.8 155.3 198.5 411.8 549.5 411.8 549.5l49.9-488.2c-1.7-19.7-170-222.8-227.9-283-15.2-15.9-69.9-61-92.2-82.5-168.1-161.5-511.4-439.9-601.9-538.4-14.3-15.5-18.4-9.6-24.7-19.1-16.1-24.7-37.1-66.1-44.4-201.5-0.7-11.8-1-42.2-2.3-57.3-1.4-15.1-18.5-36.7-26.2-54-10.2-22.9-19.4-62.4-32.8-94.9-10-24.3-15.1-21.5-36.3-31-9.7-4.3-60.5-30.5-72.1-35.1-10.3-4.1-35.3-4.1-36.6-4.7l65.4 163.8 14 64.2c0 0-26.8 13.6-53.2 43.7z"/><path class="e" d="m2394.9 433.6c0 0 3.9-12 26.6-18.8 4.1-1.3 10.6-12 9.1-19.8-2.2-10.7-7.1-27.9-25.8-23.5-5.3 1.3-23.8 15.9-9.9 62.1z"/><path class="d" d="m2662.9 479.1c-2.4-13.6-16.8-30.7-16.8-30.7-41.5-54.3-62.8-103.4-68.6-119.7-5.1-14.7-15.5-29.5-15.5-29.5-6.3-11.4-18.8-9.4-22.4-12-11.3-8.2-43.6-22.7-69.3-36.4-24.4-13-60.2-26-70.1-16.3-3.9 3.8-3.5 18.5 0.8 24.9 18.7 27.9 91.1 73.7 99.9 87.2 3.4 5.1 4.5 40.2 42 84.2 4 27.9 3 37.6 10.9 68-27.7 19.3-40.4 35.3-40.4 35.3"/><path class="e" d="m2399.2 235.3c0.1 0.2 4.3 7.6 6.1 7.6 1.8 0 12.4 0.2 18.8-1.6 6.3-1.9 17.6-1.9 17.6-1.9 0 0-10.9-8.8-32.5-10.8-7.5-0.6-11.7 2.7-10 6.7z"/><path class="f" d="m2386 572.7l1.8 106.9-16.6-14.2-7.8 79.3-21.6-18.7-47.7 134.4 14.1-206.5 27.1 25.4 17.6-56.4 16.3 15.6z"/><path class="f" d="m2210.3 507.8l-55.6 86.2-4.9-24.7-48 56.7-6.4-32.4-107.5 68.1 120.6-152.4 6.9 42.1 43.3-30.6 3.9 25.6z"/><path class="f" d="m2262.4 355.4l-128.6-8.9 23.3-20.2-91.9-18.4 30.6-26.3-142.7-76.4 241.7 40.2-40.7 32.6 60.9 29-24.9 19.5z"/><path class="f" d="m2488.2 228.2l-8.1-86.6 17.1 7.3 11.8-68.5 16.6 9.5 21.3-83.7 3 120.6-17.9-11.5-13.9 64.2-20.2-14.1z"/><path class="f" d="m2893.9 587.8l-67.7-16.1 12.9-13-45.3-28.7 14.4-12-52.5-41.2 90.6 29.7-16.5 12.6 41.4 29.4-19.5 14.1z"/><path class="f" d="m2327.9 194.2l-57.3-39.8 17-7.4-31.8-43.3 17.8-6-33.8-57.5 73.5 60.8-19.9 5.8 27.8 42.4-23.3 6z"/><path class="f" d="m2651 52.9l14 60.9-15.3 0.1 1.3 54.7-15.2 1.1-12.9 64.3-26-94.6 23.9-0.8 2.4-49.2 23.9-0.4 3.8-36.1z"/><path class="f" d="m2945.1 256l-51.9 44.9-7.7-11.8-52.4 31.5-8.6-11.1-68.8 25.8 78.5-73.2 12.7 18.2 48.9-25.6 12.4 18.5z"/></svg>