<svg version="1.2" xmlns="http://www.w3.org/2000/svg" viewBox="0 0 1680 1458" width="1680" height="1458"><style>.a{fill:#004cff;stroke:#000;stroke-miterlimit:10;stroke-width:10}.b{fill:#fff}.c{fill:#2488ff}.d{fill:none;stroke:#000;stroke-miterlimit:10;stroke-width:10}.e{fill:#4d4d4d;stroke:#000;stroke-linecap:round;stroke-linejoin:round;stroke-width:10}.f{fill:#ff6c93;stroke:#000;stroke-linecap:round;stroke-linejoin:round;stroke-width:8}.g{fill:#fc8ba4;stroke:#000;stroke-linecap:round;stroke-linejoin:round;stroke-width:8}.h{fill:#333;stroke:#000;stroke-linecap:round;stroke-linejoin:round;stroke-width:10}.i{fill:#e2b881;stroke:#000;stroke-linecap:round;stroke-linejoin:round;stroke-width:8}.j{fill:#4d4d4d}.k{fill:#c49257}.l{fill:#333;stroke:#000;stroke-linecap:round;stroke-linejoin:round;stroke-width:8}.m{fill:none;stroke:#000;stroke-linecap:round;stroke-linejoin:round;stroke-width:10}.n{fill:#cc9d64}.o{fill:#edc498}.p{fill:#b85050;stroke:#000;stroke-linecap:round;stroke-linejoin:round;stroke-width:6}.q{fill:#e49898}.r{fill:none;stroke:#000;stroke-linecap:round;stroke-linejoin:round;stroke-width:6}.s{fill:#fff8ef;stroke:#000;stroke-linecap:round;stroke-linejoin:round;stroke-width:10}.t{fill:none;stroke:#ffccdc;stroke-linecap:round;stroke-linejoin:round;stroke-width:8}.u{fill:#fc8ba4}.v{fill:#3f2200;stroke:#000;stroke-linecap:round;stroke-linejoin:round;stroke-width:3}</style><path class="a" d="m314.5 814.3l525.5 635.4 521.4-635.3-209.9-328.1h-627.2l-209.8 328z"/><path class="b" d="m493.5 642c-3.9 0-7-3.1-7-7 0-3.9 3.1-7 7-7 3.9 0 7 3.1 7 7 0 3.9-3.1 7-7 7z"/><path class="b" d="m1223.9 713.1c-8.3 0-15-6.7-15-15 0-8.3 6.7-15 15-15 8.3 0 15 6.7 15 15 0 8.3-6.7 15-15 15z"/><path class="c" d="m1223.9 678.6c-10.8 0-19.5 8.7-19.5 19.5 0 10.8 8.7 19.5 19.5 19.5 10.8 0 19.5-8.7 19.5-19.5 0-10.8-8.7-19.5-19.5-19.5zm0 9c5.8 0 10.5 4.7 10.5 10.5 0 5.8-4.7 10.5-10.5 10.5-5.8 0-10.5-4.7-10.5-10.5 0-5.8 4.7-10.5 10.5-10.5z"/><path class="b" d="m1006.4 597.3c-20.2 0-36.7-16.4-36.7-36.6 0-20.2 16.4-36.7 36.6-36.7 20.2 0 36.7 16.4 36.7 36.6 0 20.3-16.4 36.7-36.6 36.7z"/><path class="c" d="m1006.4 516c-24.7 0-44.7 19.9-44.7 44.6 0 24.7 19.9 44.7 44.6 44.7 24.7 0 44.7-19.9 44.7-44.6 0-24.7-20-44.7-44.6-44.7zm0 16c15.8 0 28.7 12.8 28.7 28.7 0 15.9-12.8 28.7-28.7 28.7-15.9 0-28.7-12.8-28.7-28.7 0-15.8 12.8-28.7 28.7-28.7z"/><path class="b" d="m1159.3 734.8c-7 0-12.7-5.7-12.7-12.7 0-7 5.7-12.7 12.7-12.7 7 0 12.7 5.7 12.7 12.7 0 7-5.7 12.7-12.7 12.7z"/><path class="c" d="m1159.3 705.5c-9.2 0-16.7 7.4-16.7 16.7 0 9.3 7.4 16.7 16.7 16.7 9.3 0 16.7-7.4 16.7-16.7 0-9.2-7.5-16.7-16.7-16.7zm0 8c4.8 0 8.7 3.9 8.7 8.7 0 4.8-3.9 8.7-8.7 8.7-4.8 0-8.7-3.9-8.7-8.7 0-4.8 3.9-8.7 8.7-8.7z"/><path class="b" d="m1025.4 617.9c1.8 0 3.2 1.4 3.2 3.2 0 1.8-1.4 3.2-3.2 3.2-1.8 0-3.2-1.4-3.2-3.2 0-1.8 1.4-3.2 3.2-3.2z"/><path class="b" d="m933.4 528.9c-1.8 0-3.2-1.4-3.2-3.2 0-1.8 1.4-3.2 3.2-3.2 1.8 0 3.2 1.4 3.2 3.2 0 1.8-1.4 3.2-3.2 3.2z"/><path class="b" d="m515 614.9c-1.8 0-3.2-1.4-3.2-3.2 0-1.8 1.4-3.2 3.2-3.2 1.8 0 3.2 1.4 3.2 3.2 0 1.8-1.4 3.2-3.2 3.2z"/><path class="b" d="m676.6 536.2c-1.8 0-3.2-1.4-3.2-3.2 0-1.8 1.4-3.2 3.2-3.2 1.8 0 3.2 1.4 3.2 3.2 0 1.8-1.4 3.2-3.2 3.2z"/><path class="b" d="m629.9 529.8c-3.5 0-6.3-2.8-6.3-6.3 0-3.5 2.8-6.3 6.3-6.3 3.5 0 6.3 2.8 6.3 6.3 0 3.5-2.8 6.3-6.3 6.3z"/><path class="b" d="m1164.7 674.3l3.2-1.2 0.8-3.3 2.2 2.7 3.4-0.2-1.9 2.8 1.3 3.2-3.3-0.9-2.7 2.2-0.1-3.4-2.9-1.9z"/><path class="b" d="m1208.6 739.2l3.2-1.2 0.9-3.3 2.1 2.7 3.4-0.3-1.9 2.9 1.3 3.2-3.3-1-2.6 2.3-0.2-3.5-2.9-1.8z"/><path class="d" d="m445.8 973l394.2 476.7"/><path class="e" d="m958.8 752.7c60-2.5 347.3 121 412.9 126.4 158.3 13.2 187.7-83.3 185-125.3-2-31.6-22.3-71-68.4-71.1-27 0-46.6 15.5-62.1 37.1-5.9 8.2 8 21.4 20.1 7.7 12.5-14.1 36.2-16.6 46.6-4.9 10.6 12.1 6.6 36.6-6.2 50.7-46.3 51.2-220.8 92-317.3-26.3-92.6-113.5-216.3-118.7-283.3-90.4-32.6 13.8 33.9 97.7 72.6 96.1z"/><path class="e" d="m784.6 964.1c-43.6 49.3-287.4 85.8-387.6 41.7-85.8-37.8-60.6-54.2-126.8-91.1-54.2-30.2-129 32.2-149.3 44.1-11.9 7-13.2-5-8.5-10.6 9.1-10.7 64.4-101.7 168.6-64.3 164.3 59 424-248.7 512-206.1 31.9 15.4 67.3 138.2 23 200.1-49.6 69.3-13.5 65.8-31.5 86.2z"/><path class="f" d="m1100.6 1132.1c-21.2-49.7-44-91.5-50.3-91.2-8.4 0.3-198.5-29.8-527.7 24.9l317.5 383.9 260.6-317.6z"/><path class="g" d="m815.5 1108.7v-95.5c0 0-131.3-3.1-193.7 0-40.2 2-83.3 13.7-126.6 19.6l34.8 42.1c174.3-24 285.5 33.8 285.5 33.8z"/><path class="h" d="m899 982c48.5 11.4 149.3 36.2 260.4-19.6 64.1-32.2 103.6-58.4 183.2-91.7 52.6-22 94-15 122.2 3.5 16.1 10.5 32 26.8 35.7 35.8 2.7 6.7 13.6 8.9 10.6-5.8-3-14.8-55-146.5-226.4-103.9-151.4 37.6-381-216.9-588.3-145.8-38.4 13.2-79.4 138.2-27.1 200.1 58.4 69.2 198.8 120.2 229.8 127.4z"/><path class="h" d="m742.4 960.6c-54.9 11.4-182.2 77.6-308 21.8-72.6-32.2-63.8-76.3-152.2-113.2-72.4-30.2-202.8-28.2-230-16.3-15.9 7-17.6-5-11.4-10.6 12.1-10.7 118.9-107.1 224.8-40.1 178.4 112.9 509.3-242.3 698-147.7 40.5 20.3 89.9 138.2 30.7 200.1-66.2 69.3-216.9 98.8-252 106.1h0.1z"/><path class="i" d="m780.6 962.9c0 0-2.7 120.6-13.5 152.6-10.8 32 153.9 22.8 153.9 22.8 0 0-7.4-139.3-6.4-159.9 1-20.6-134-15.5-134-15.5z"/><path class="j" d="m552.5 856.1l74.8 44.5c0 0 121.2 13.6 151 10.4 29.8-3.2-18.1-74.2-66.4-83.3-104.5-19.5-159.4 28.3-159.4 28.3z"/><path class="k" d="m830.3 1034.3l46.5 0.4 34.8-15.6c-0.8-20.7-1.2-33.8-0.9-40 1-20.6-126-15.1-126-15.1 0 0-0.3 20.4-1.9 50.3l47.6 20z"/><path class="e" d="m941.7 656.8c-80.5-2.5-481.7 126.8-569.8 131.1-88.1 4.3-124.5-31.2-138.4-51.2-16.5-24-31.5-49.2-15.2-89.5 12.9-31.8 40.6-46.3 67.5-46.3 26.9 0 32.3 13.6 36.7 22.3 4.4 8.7-3.4 8-11.6 4.2-23.8-10.9-45 4.7-43.6 43 1.4 38.3 109.6 58.2 257.3-47.4 203.2-145.3 331.4-113.9 397-57.2 31.1 26.8 72.1 92.7 20.1 91.1z"/><path class="h" d="m477.5 825.5c-84.7 45.7-127.3 67.6-151.5 73.8-129.9 33.5-165.5-69.2-153-106.6 7.4-22.1 23.8-32.1 42.4-32.1 18.6 0 23.7 8.2 26.6 14.1 7.6 15.5-4.5 31-6.4 31.3-0.8 0 1.2-6.3-0.4-12.1-1.2-4-5.1-7.4-9-9-11.1-4.4-31.5-1-25.6 24.8 5.3 23.3 48.9 63.9 130.7 28.5"/><path class="h" d="m1195.7 860.8c54.5 13.6 83.4-17.6 90.6-26.2 6.8-8.1 12.6-23.7 10.4-44-1.7-16.1-14.8-24.6-22-26.4-8.2-2-13.8 1.1-16.7 4.6-2.1 2.7 0.5 4 4.4 3.1 11.2-2.6 19.1 3.2 14.1 20.8-4.1 14.6-36.3 52.5-79.8 25.9"/><path class="l" d="m1160.1 850.5c5 1.4 9.7 2.6 13.9 3.6"/><path class="l" d="m1120.5 836.5c5.8 2.4 11.4 4.6 16.7 6.6"/><path class="h" d="m608.5 830.1c6.3-1.6 8.8-3.2 18-5.8"/><path class="h" d="m576 844.9c4.6-2.8 9-5.3 13.4-7.4"/><path class="i" d="m715.4 812.1c-0.3-2.4 5.8-26.4 0.6-24.8-5.2 1.6-20.7-7.1-18.3 8.2 2.4 15.3 6.1 36.6 5.4 49.2-0.7 12.6 6.3 37.9 15.9 26.5 9.6-11.4-2.9-52.5-3.7-59z"/><path class="i" d="m974.1 812.1c0.3-2.4-5.8-26.4-0.6-24.8 5.2 1.6 20.7-7.1 18.3 8.2-2.4 15.3-6.1 36.6-5.4 49.2 0.7 12.6-6.3 37.9-15.9 26.5-9.6-11.4 2.9-52.5 3.7-59z"/><path class="e" d="m778.3 930.5c-117.5-91.7-266.1 111.1-463.1 104.3-109-3.8-97.9-62.8-88.4-78.6 9.9-16.6 25.2-20.6 35.9-20.6 10.7 0 19 3.5 21.7 6.8 2 2.5-2.1 3-7.2 1.6-14.7-4.2-31.4 12.5-23.1 29 11.7 23.3 55 18 146.5-22.4 69.5-30.6 96.9-65.6 140.6-88.8 3.8-2 7.5-3.9 11.2-5.8"/><path class="h" d="m993.9 969.8c98.2-4 169.1 101.1 259.8 99.4 66.6-1.2 66.6-42.5 60.4-57.9-4.9-12.2-19-14.7-25.6-14.7-6.6 0-11.6 3.5-13.3 6.8-1.2 2.5 1.3 3 4.4 1.6 9-4.2 17.1 1.8 16.5 16.4-0.6 14.6-36 30.6-91.9-9.8-42.4-30.6-41.5-41.3-59.1-72.1-20.7-36.2-48.6-68.1-140.1-69.7"/><path class="i" d="m720.8 871.2c5.6 28.2 7 38.9 23.2 81 6.2 16.1 42 30.3 69.3 44.1 23.8 12.1 59.5 11.2 75.4 1.9 26.2-15.3 61.7-30.7 68.2-50.5 9.5-29.3 19.5-70.6 18.6-84.2-0.9-13.6 10.5-105.3-9.1-126.1-19.6-20.8-151.3-145.5-206.8-64.4-47.7 69.7-53.2 126.1-38.9 198.3z"/><path class="h" d="m501.3 697.4c-36.2 13.7-55.7 18.6-89.2 6.6-83.1-29.8-169.5-95.8-299.7-5-54.9 38.2-64.4 57.7-73.4 70.9-6.8 10 3.7 16.4 13.2 10.7 14.6-8.8 136.3-62.8 203.1-49.3 77.8 15.8 132.1 75.8 183.4 78.2 133.8 6.2 173.5-54.3 301.2-111.4 156.4-69.9 133.9 46.9 194.3 45.6 60.4-1.3 103.8-72.7 26.4-146-44.3-42-177.6-49.1-284.2 6.3-36.8 19.2-71.7 40.6-104.8 59.2"/><path class="m" d="m545.3 677.4c-4.9 2.5-9.8 5-14.7 7.3"/><path class="m" d="m783.6 638.3c0 0-46-10.1-119 39.8-73 49.9-107.4 68.3-161.8 68.9"/><path class="m" d="m516.2 848c0 0-74.5 36.1-103.4 46.3"/><path class="m" d="m956.1 692c0 0 22.6-50.1-28.8-78.3"/><path  d="m954 805.5c-2.1 0-3.8-1.7-3.8-3.8 0-2.1 1.7-3.8 3.8-3.8 2.1 0 3.8 1.7 3.8 3.8 0 2.1-1.7 3.8-3.8 3.8z"/><path class="n" d="m874.8 801.2c-2.4 4.6-13.6 28.4-5.9 47.9 9.9 25 0.6 32.8 0.6 32.8 0 0 23.1 6.8 23.1-5.5 0-12.3-19.3-32.2-19.6-41.7-0.3-9.5 8.3-22 11.2-29.1 2.9-7.1-7-8.9-9.3-4.4z"/><path class="o" d="m848.7 853.1c1.8 0 2.3 3.2 3.3 5.8 1.8 4.5 2 9.5 8.6 11.9 22.5 8.3-15.9 12.9-18.9 4.9-1.6-4.3 3.7-22.6 6.9-22.6z"/><path class="b" d="m813.9 912.1l15.6 22.9c8.4 5.9 18.4 9.1 28.6 9.2 16.6-0.2 43.3-23.6 42-30.4-1.3-6.8-86.2-1.7-86.2-1.7z"/><path class="p" d="m805.5 913.8c0 0 38.6-12.6 48.3-5.6 1.7 1.1 3.6 1.5 5.5 1.1 0 0 1.5-1 8.6-3 3.5-1 28.9 0.6 36.1 2.4 1.5 0.3 2.9 0.8 4.2 1.6 0.9 0.5-2.7 9.4-3.2 9.6-1 0.4-2.7-5.9-4.3-5.9-3.9 0-10.4-0.2-23.1 0-4.3 0-10.7 4.3-16.4 4.3-5.7 0-16-5.8-26.1-6.6-4.4-0.4-15.1-0.5-19.7-0.6-2.1 0-2.2 8.7-0.7 10.9-1.7 0-11.1-0.6-10.7-3.1 0.3-1.3 1.3-5.3 1.3-5.3h0.2z"/><path class="p" d="m815 917.2c-5.9-1.1 12.4 23.1 28.9 28.8 6.2 2.2 18.8 5.2 31.2 0.6 8.6-3.3 22.9-14.9 28.7-26 4.3-8.2-11.1 4.9-26.1 12-5.7 2.8-11.6 4.8-17.1 4.8-12.3-4.4-24.8-3.9-31.6-9.3-4-3.3-12.2-10.5-13.9-10.8h-0.1z"/><path class="q" d="m836.2 935.7c-0.9-0.5 17.2 1.6 19.2 3.5 1.9 1.9 5.5 7.1 3.7 6.8-13.1-2-18.3-7.6-22.9-10.3z"/><path class="q" d="m863.1 939.6c0 0 2.8 4.3 1.7 6.2-0.6 1.1 15.5-2.6 20.2-8.6 4.6-6 0.5-4.1-2.1-3-2.6 1-15.1 6.1-19.8 5.4z"/><path class="r" d="m802.1 908c0 0-1.1 9.4 1.7 16"/><path class="r" d="m882.5 877.7c-5.2 2.9-6.9 2-9.7 3.2"/><path class="r" d="m835.2 866c0 0-5.6 8.6-3.4 11.8 2.2 3.2 8.2 2.9 11.2 4"/><path  d="m814 778.7c-7-2.4-40.2-9.1-44.2-8.5-9.6 1.4-20.2 13.2-20.2 13.2-0.5 0.9-0.3 2 0.6 2.6 0.2 0 0.3 0.2 0.5 0.2 2.2 0.8 11.3-4.9 17.5-5 5.1 0 34.7 6.1 44.3 8.2 2.1 0.5 6.2 1.2 7.8-0.8 2-2.4 0.7-7.5-6.3-9.9z"/><path  d="m955.5 784.1c0 0-8.3-12.5-17.9-13.8-4-0.6-37 6-43.9 8.4-6.9 2.4-8.3 7.5-6.3 9.9 1.6 1.9 5.6 1.2 7.8 0.8 9.6-2.1 39-8.2 44-8.1 6.2 0 13 6.4 15.3 5.6 1-0.2 1.6-1.2 1.4-2.2 0-0.2 0-0.4-0.2-0.5h-0.2z"/><path class="m" d="m1158.3 1007.5q5.2 2.7 10.8 4.8"/><path class="m" d="m1125.6 980.6c4.6 5.4 9.7 10.4 15.2 15"/><path class="m" d="m991.6 923.9c0 0 53-25 120.8 42.6"/><path class="b" d="m1080.6 611.8c-3.9 0-7-3.1-7-7 0-3.9 3.1-7 7-7 3.9 0 7 3.1 7 7 0 3.9-3.1 7-7 7z"/><path class="b" d="m458.5 616.3c-6.4 0-11.5-5.2-11.5-11.5 0-6.3 5.2-11.5 11.5-11.5 6.3 0 11.5 5.2 11.5 11.5 0 6.3-5.2 11.5-11.5 11.5z"/><path class="c" d="m458.5 588.7c-8.8 0-16 7.2-16 16 0 8.8 7.2 16 16 16 8.8 0 16-7.2 16-16 0-8.8-7.2-16-16-16zm0 9c3.9 0 7 3.1 7 7 0 3.9-3.1 7-7 7-3.9 0-7-3.1-7-7 0-3.9 3.1-7 7-7z"/><path class="b" d="m968.1 645l3.6 17.8 3.5-17.8h11.6l-11.6-4.4-1.7-17.5-5.4 16.7-13 2.8 13 2.4z"/><path class="b" d="m400 925.8l-2.5-12.6-2.5 12.6h-8.2l8.2 3.1 1.2 12.4 3.8-11.8 9.3-2.1-9.3-1.6z"/><path class="s" d="m1056 1186.5c-2.4-4.5-10.6-20.6-11.5-23.2l18.2 15.1 93.7-114.1c-16.2-33.8-34.5-59.5-47.9-69.3-30.4-22.2-93.4-7.1-113.8 3.3-36.7 18.8-78.4 70.2-138.3 93.7-27.2 10.7-32.8 8.5-101 12.8-38.8 2.4-101 38.3-145 67.3l229.7 277.6 216-263.2z"/><path class="g" d="m837.9 1154.2c-45.8 0-90 35.1-94.2 81.8-4.9 53.1 44.8 90.3 94.2 90.3 49.4 0 99-37.2 94.2-90.3-4.3-46.9-48.4-81.8-94.2-81.8zm67.1 83.9c0.2 12.4-2.7 21.5-8.6 33.2-15.3-12.2-30.4-24.8-44.9-37.8-0.2-17.8-0.5-35.6-0.7-53.2 28.1 5.2 53.8 30.2 54.2 57.8zm-81.5 62c-9-1.7-17.5-5.1-25.2-10.1 8.6-7 17.2-14.2 25.6-21.5 0 10.6-0.3 21.1-0.4 31.6zm28.5-31.4c8.5 7.2 17 14.3 25.6 21.5-7.7 4.9-16.2 8.3-25.2 10.1-0.2-10.5-0.3-21.1-0.4-31.5zm-26.9-88.5c-0.2 17.8-0.5 35.6-0.7 53.2-14.5 13.1-29.6 25.6-44.9 37.8-5.9-11.7-8.7-20.8-8.6-33.2 0.3-27.5 26.1-52.5 54.2-57.8z"/><path class="t" d="m875.7 1176.7c21.7 9 38.4 29.4 40.2 53.1"/><path class="t" d="m795.7 1301.9c-22.4-10.2-38.4-32.4-36.5-57.5"/><path class="b" d="m1186.9 928.9l-2.4-11.9-2.3 11.9h-7.8l7.8 3 1.1 11.7 3.6-11.2 8.8-1.9-8.8-1.6z"/><path class="b" d="m615.1 750l2 11.2 2.9-12.2 8.4-0.9-8.3-2.1-2.7-12.2-2.2 12.6-9 1.6 8.9 2z"/><path  d="m1673.9 443.3c-2.8-6.9-6.9-13.2-11.9-18.7-1.3-1.9-35.7-44.1-37.5-46.1-5.3-7.2-11.8-13.4-19.2-18.4-14.8-10.2-33.6-16.5-55.8-19 4.4-9 7-19.1 5.1-30.2-1.8-10.6-6-19.2-12-25.3-1.4-2.1-35.8-44.4-37.5-46.1-7-10.5-18.1-16.4-31.9-16.4-12.3 0-24.4 4.9-34.1 10.2-0.6-0.7-1.2-1.4-1.9-2.1-1.4-2-12.6-15.8-14.5-17.8-10.2-10.5-25.3-16.5-41.3-16.5-18.4 0-35.4 8-45.5 21.5-8.8 11.6-9.2 21.9-6.9 30.2-1.2-1.7-2.5-3.3-4-4.8-6.6-10-16.9-15.7-29.4-15.7-12.5 0-21.5 4.1-31.8 10.5-0.7-0.9-1.5-1.7-2.3-2.6-1.4-2-10.2-12.7-13.7-15.5-9.4-7.2-20.9-11-32.7-10.9-18 0-34.3 8.2-43.6 22l-0.6 0.9c-6.2-2.7-12.9-4-19.6-3.9-5.5 0-11 0.8-16.4 2.3-1.2-1.7-2.5-3.3-4-4.8-4.2-6.1-9.8-11-16.4-14.2-6.9-3.4-14.6-5.2-22.3-5.1-16.5 0-34.3 7.4-52.8 21.9-15 11.8-25.3 22.7-36.9 37.8-1.1-1.4-6.5-8-8.1-9.8-7.5-11.4-20.2-18.1-33.8-18-5.4 0-10.8 0.9-16 2.5-0.9-1.1-15.1-18.7-16.8-20.4-3.1-4.6-7.1-8.6-11.8-11.7-7.6-4.8-16.4-7.3-25.4-7.2-24 0-54.1 16.8-56.9 38.4v1c-5.8-1.6-11.9-2.4-17.9-2.4-15.6 0.2-31 4.5-44.4 12.4-9.6 5.8-18.3 13-25.8 21.4-0.6-0.7-4.8-6-6.5-7.8-9.5-13.6-25.2-21.7-41.8-21.6-6.3 0-12.7 1-18.8 2.7l-0.8-0.8c-1.4-2-12.3-15.5-14.1-17.3-9.3-13.8-26.6-21.9-47.7-21.9-21.1 0-8.4 0.3-12.6 0.9-15.1 2.1-29.5 11.5-38.5 25-5.2 7.9-10.4 19.8-10.6 36.2-7.1-7.2-17.7-11.2-30.3-11.6 0.2-1.3 0.3-2.7 0.3-4 0.5-20.4-2.5-39.4-8.8-56.2-5.1-13.5-12.5-26-21.9-36.9-1.5-2-43.8-53.8-47.3-57.4-15.6-16-35.9-28.2-60.1-36.2-21.4-7.1-45-10.7-70.1-10.7-10.6 0-21.2 0.7-31.8 2-38.4 4.8-74.8 18.3-105.1 39.3-29 20-51.2 45.6-64 74-8.8 19.4-12.8 39-11.9 58.4 0.9 20.5 7.6 40.4 19.3 57.3 2.8 4.1 5.8 8.1 9 11.9q-3.1-0.5-6.3-0.9c-2.3-0.2-4.7-0.4-7-0.4-12.8 0-27 3.4-41 9.8-15.2 7.1-29 17-40.5 29.2-18.3 19.5-39.4 53.8-36.2 107.2 1.9 32 13.8 61.5 33.7 84.7 1.5 2 47.5 58.1 53.3 63.5 15 13.8 33.3 24.6 54.4 31.9 22.4 7.8 48.1 11.8 76.3 11.8 28.2 0 11.4-0.2 17.2-0.5 42.4-2.3 81.1-10.3 115-23.8 32.7-13 62.6-32.1 88.2-56.2 13.7-12.8 26.1-26.9 37.1-42.1 0.9 10.4 4.2 18.6 9.8 24.9 0.5 0.5 41 50.6 42.2 51.9 7.1 7.9 17 11.9 29.7 11.9 12.7 0 4.3 0 6.7-0.3 22-2.1 36.6-15.1 48.9-43.3 12.9-29.6 29.7-73.3 39.8-99.7 9.8 4.6 21.7 7.2 34.6 7.2 12.9 0 27.7-3.3 38.5-9.5 13.1-7.5 24.7-17.3 34.2-29 0.5 0.6 9.1 10.7 14.1 14.1 10.2 6.9 23.3 10.6 38 10.6 14.7 0 18-1.3 26.7-3.9 5-1.5 9.9-3.4 14.6-5.7 0.5 0.5 4.4 5.6 6.1 7.2 3.7 5.9 9.3 10.3 15.9 12.5 6 2.1 12.3 3.1 18.6 3.2 16.9 0 31.3-8.1 42.6-24.2 5.4-7.6 9.6-16.3 13-24.5 2.1 2 4.6 3.6 7.2 4.8 2.2 4.4 44.4 56.5 46.1 58.4 3.6 5.1 8.1 9.6 13.2 13.3 11.5 8.3 26.2 12.7 42.6 12.7 16.4 0 3.6 0 5.4-0.1q8.1-0.5 15.9-2.4c-1.7 15.7 1.1 31.5 7.9 45.7 3.4 6.9 48.4 63 50.1 64.8 18.1 24.5 49.4 38.2 88.1 38.2 38.7 0 5.8 0 8.8-0.2 32.2-1.6 52.8-17.6 64.4-30.8 12.7-14.5 20.7-32.6 20.3-46.2 0-4.2-1.1-8.4-3.2-12.1-1.2-2-10.9-13.8-11.7-14.7 4.7-6.3 12.1-14.4 23.3-23.1 16.9-13.1 46.3-30.2 92.9-41.3 1 1.2 27.2 33 33.4 38.5 13 11.4 27.9 20.5 44 26.9 12.9 5.1 26.4 8.6 40.1 10.6 6.6 0.9 13.2 1.4 19.8 1.4 38.1 0 86.6-14.7 109.2-47.7 9.7-14 18.6-37.3 6.4-68.7z"/><path  d="m1662 424.6c-1.3-1.9-35.7-44.1-37.5-46.1-5.3-7.2-11.8-13.4-19.2-18.4-14.8-10.2-33.6-16.5-55.8-19 0.4-0.7 0.7-1.5 1-2.2h-1516.7c-17.5 19.9-36.4 53.4-33.3 104 1.9 32 13.8 61.5 33.7 84.7 1.5 2 47.5 58.1 53.3 63.5 15 13.8 33.3 24.6 54.4 31.9 22.4 7.8 48.1 11.8 76.3 11.8 28.2 0 11.4-0.2 17.2-0.5 42.4-2.3 81.1-10.3 115-23.8 32.7-13 62.6-32.1 88.2-56.2 13.7-12.8 26.1-26.9 37.1-42.1 0.9 10.4 4.2 18.6 9.8 24.9 0.5 0.5 41 50.6 42.2 51.9 7.1 7.9 17 11.9 29.7 11.9 12.7 0 4.3 0 6.7-0.3 22-2.1 36.6-15.1 48.9-43.3 12.9-29.6 29.7-73.3 39.8-99.7 9.8 4.6 21.7 7.2 34.6 7.2 12.9 0 27.7-3.3 38.5-9.5 13.1-7.5 24.7-17.3 34.2-29 0.5 0.6 9.1 10.7 14.1 14.1 10.2 6.9 23.3 10.6 38 10.6 14.7 0 18-1.3 26.7-3.9 5-1.5 9.9-3.4 14.6-5.7 0.5 0.5 4.4 5.6 6.1 7.2 3.7 5.9 9.3 10.3 15.9 12.5 6 2.1 12.3 3.1 18.6 3.2 16.9 0 31.3-8.1 42.6-24.2 5.4-7.6 9.6-16.3 13-24.5 2.1 2 4.6 3.6 7.2 4.8 2.2 4.4 44.4 56.5 46.1 58.4 3.6 5.1 8.1 9.6 13.2 13.3 11.5 8.3 26.2 12.7 42.6 12.7 16.4 0 3.6 0 5.4-0.1q8.1-0.5 15.9-2.4c-1.7 15.7 1.1 31.5 7.9 45.7 3.4 6.9 48.4 63 50.1 64.8 18.1 24.5 49.4 38.2 88.1 38.2 38.7 0 5.8 0 8.8-0.2 32.2-1.6 52.8-17.6 64.4-30.8 12.7-14.5 20.7-32.6 20.3-46.2 0-4.2-1.1-8.4-3.2-12.1-1.2-2-10.9-13.8-11.7-14.7 4.7-6.3 12.1-14.4 23.3-23.1 16.9-13.1 46.3-30.2 92.9-41.3 1 1.2 27.2 33 33.4 38.5 13 11.4 27.9 20.5 44 26.9 12.9 5.1 26.4 8.6 40.1 10.6 6.6 0.9 13.2 1.4 19.8 1.4 38.1 0 86.6-14.7 109.2-47.7 9.6-14 18.5-37.3 6.3-68.7-2.8-6.9-6.8-13.2-11.8-18.7z"/><path  d="m1631.7 391.4c-2.1-5.4-8.8-19.3-26.4-31.3-19.4-13.3-45.4-20.1-77.3-20.1-18.2 0.2-36.4 2-54.3 5.5 2.2-7.6 5.5-14.8 9.8-21.5 2-3.1 4.9-6.9 7.9-10.8 10.5-13.4 24.8-31.8 21.1-54.1-3.8-22.5-18.4-36-39.2-36-14.1 0-28 6.4-38.2 12.6-2-8.4-6.2-16.1-12.3-22.2-10.2-10.4-25.2-16.4-41.3-16.4-18.4 0-35.4 8-45.5 21.5-4.6 6.2-6.6 13.9-7.1 21.2-0.2 2.2-5.7 1.5-7.2-0.1-6.5-7.3-15.5-11.4-26.2-11.4-10.7 0-22.9 4.6-33.8 11.8-2.8-7.6-7.6-14.3-14-19.3-9.4-7.2-20.9-11-32.7-10.9-18 0-34.3 8.2-43.6 22l-0.6 0.9c-6.2-2.7-12.9-4-19.6-3.9-5.9 0-11.8 0.9-17.5 2.7-4.8-10.8-13.9-16.6-19.2-19.3-6.9-3.4-14.6-5.2-22.3-5.1-16.5 0-34.3 7.4-52.8 21.9-16.4 12.9-27.1 24.6-40 41.9-0.4-5-2.1-9.9-5-14.1-7.5-11.3-20.2-18-33.8-17.9-8.5 0-16.8 2.3-24.5 5.7-0.3-3.8-1.1-7.6-2.3-11.2-3.4-10.3-9.6-18.7-17.9-24-7.6-4.8-16.4-7.3-25.4-7.2-24 0-54.1 16.8-56.9 38.4v1c-5.8-1.6-11.9-2.4-17.9-2.4-15.6 0.2-31 4.5-44.4 12.4-10.2 6.2-19.4 13.9-27.2 22.9-0.2-0.3-0.3-0.7-0.4-1-5.7-12.6-16.3-22.4-29.3-27-5.5-2-11.3-2.9-17.2-2.9-8.9 0.1-17.7 1.8-26 5-0.4-2.9-1-5.8-1.9-8.6-6.3-20.8-26.7-33.7-53.3-33.7-26.6 0-8.4 0.3-12.6 0.9-15.1 2.1-29.5 11.5-38.5 25-5.2 7.9-10.4 19.8-10.6 36.2-7.5-7.5-18.8-11.7-32.3-11.7-13.5 0-10.9 0.6-16.3 1.9-1-6.9-5.5-16.1-20.2-22.3-5.5-2.3-11.3-3.7-17.2-4.1 8.7-9.8 13.6-20.8 13.9-31.4 0.5-20.4-2.5-39.4-8.9-56.2-5.9-15.9-15.1-30.3-27-42.4-15.6-16-35.9-28.2-60.1-36.2-21.4-7.1-45-10.7-70.1-10.7-10.6 0-21.2 0.7-31.8 2-38.4 4.8-74.8 18.3-105.1 39.3-29 20-51.2 45.6-64 74-8.8 19.4-12.8 39-11.9 58.4 0.9 20.5 7.6 40.4 19.3 57.3 2.8 4.1 5.8 8.1 9 11.9q-3.1-0.5-6.3-0.9c-2.3-0.2-4.7-0.4-7-0.4-12.8 0-27 3.4-41 9.8-15.2 7.1-29 17-40.5 29.2-18.4 19.2-39.5 53.5-36.3 106.9 2.3 37.5 18.2 71.7 44.8 96.2 15 13.8 33.3 24.6 54.4 31.9 22.4 7.8 48.1 11.8 76.3 11.8 28.2 0 11.4-0.2 17.2-0.5 42.4-2.3 81.1-10.3 115-23.8 32.7-13 62.6-32 88.1-56.2 32-30.3 54-62.5 65-94.8 8 4.7 17.2 7 26.5 6.9 4.4 0 8.7-0.5 13-1.3-2 4.9-4 10-6 15.2-10.7 28.1-17 50.7-18.9 66.9-2.1 18.7 1 32.4 9.5 41.8 7 7.9 17 11.9 29.6 11.9 12.6 0 4.3 0 6.7-0.3 22-2.1 36.6-15.1 48.9-43.3 12.9-29.6 29.7-73.3 39.8-99.7 9.8 4.6 21.7 7.2 34.6 7.2 12.9 0 27.7-3.3 38.5-9.5 13.2-7.5 24.9-17.5 34.5-29.3 3.5 5.8 8.2 10.7 13.8 14.5 10.2 6.9 23.3 10.6 38 10.6 14.7 0 18-1.3 26.7-3.9 5.9-1.7 11.6-4 17-6.9 3.9 13.6 13.7 18.9 19.6 20.8 6 2.1 12.3 3.1 18.6 3.2 16.9 0 31.3-8.1 42.6-24.2 5.4-7.6 9.6-16.2 13-24.5 3.2 3 7.1 5.1 11.3 6.2 4.4 1.2 9 1.8 13.6 1.8 6.6 0 13.1-1.1 19.3-3.2-2.7 15.7-2.1 30.2 1.7 43.2 3.6 11.5 10.9 21.5 20.8 28.4 11.5 8.3 26.2 12.7 42.6 12.7 16.4 0 3.6 0 5.4-0.2 25.6-1.4 44-13.1 58-27.7 6.3 10.6 16.6 17.8 29.5 21-4.4 4.2-8.5 8.7-12.2 13.5-19.6 25.3-23.1 59.5-9.2 88.4 15.9 32.5 50.9 51.2 96 51.2 45.1 0 5.8 0 8.8-0.2 32.2-1.6 52.8-17.6 64.4-30.8 12.7-14.4 20.7-32.6 20.3-46.2 0-4.2-1.1-8.3-3.2-12-3.2-5.5-8.9-9.1-15.2-9.6 4.1-6.6 12.2-16.9 26.8-28.2 17.4-13.5 47.9-31.2 96.9-42.2 6.9 15 16.9 28.5 29.4 39.4 13 11.4 27.9 20.5 44 26.9 12.9 5.1 26.4 8.6 40.1 10.6 6.6 0.9 13.2 1.4 19.8 1.4 38.1 0 86.6-14.8 109.2-47.7 9.7-14.1 18.6-37.4 6.4-68.8h-0.1z"/><path class="u" d="m406.9 243.2c30.8-0.7 57.9-15.8 58.2-42.9 1.5-111-97.1-136.5-178.8-126.4-124.8 15.4-201.9 126.3-149.9 202.7 24.3 35.7 56.7 49 95.4 42.4 38.2-6.5 57.3 19.9 51.6 46.9-8.5 40.2-47.6 71.2-115 73.9-51.9 2.1-88.4-28.8-69.7-50.1 10.9-12.4 33.8-13.1 40.6 2.2 17.1 38.9 68.4 28.3 74.9-6 5.4-28.1-13.5-55.8-57.7-67-28.5-7.2-49.5-4.2-59-1.3-37.7 11.5-84.5 50.6-80.1 124.2 3.9 63.7 52.8 130.2 174.9 123.6 82.8-4.5 145.4-30.9 192.4-75.5 117.2-111.2 67.7-221.5-33.6-251-53.5-15.6-80.8 18.3-116.7 1.1-26.2-12.5-19.6-49.7-1.6-71.6 13.4-16.3 38.9-29.2 56.4-32.5 64.1-11.9 69.4 21.7 55 54-13.6 30.7 31.8 53.9 62.6 53.2h0.1z"/><path class="u" d="m959.6 313c2.5-10.5 37.1-18.9 21-46.7-14.2-24.5-48.8-2.7-64.6 11.9 0.3-6.4 6.3-26.4 1.9-39.6-12.4-37.2-62.9-12.7-67.3 4-3.2 11.9 7.9 19.3 11.3 29.9 6.4 19.5-7.5 39.5-9.8 42.5-20.4 26.9-48.9 27.5-57.9 17.4 19.6 1.4 50.8-17.6 54.3-47.7 3.5-30.1-37.4-36.8-68.6-18.5-29 17-53.6 58.8-51.7 85 2 27.7 33.8 36.3 63.7 27.7 16.8-4.9 31.4-16 41.5-29.5-8.3 28.7-4.4 40.5 5.2 43.6 40.2 13.4 51.9-34.2 62-57.8 9.4-22.1 21.2-25.9 17.3-11.2-3.2 12-5.2 26.6 5.4 29.5 24 6.6 56.3-15.1 57.3-41.6-7.2 8.4-24.5 16.1-21 1.1zm-180.9 3.2c-9-6.9 9.7-28 33-33.2 21-4.7 16.1 19.9-6.8 30-5.4 2.4-19.9 8-26.2 3.2z"/><path class="u" d="m1016.6 436.2c-28.6 0-43.5-15.8-47.4-29.3-4.6-15.8-3.3-34.6 3.9-56 6-17.9 16.2-37.2 29.3-55.9 19.7-28.1 29.9-39.5 47.3-53.2 10.7-8.4 26.7-18.4 42.6-18.4 15.9 0 10.3 1.1 15 3.4 11.9 5.9 15.8 16.4 11.5 31.1l0.9-0.7c1.9-1.8 4-3.2 6.4-4.2 10-3.8 18.8-5.7 26.3-5.7 27.1 0 29.3 25 29.3 32.6 0 22.1-11.9 29.9-25.7 38.9-2.9 1.9-5.8 3.8-8.8 6-16.2 11.6-26.7 32.3-15.2 49.3 4.8 7.2 14.6 13.1 26 15.8 8.5 2 13.5 7.6 13.2 14.6-0.6 10.7-14.3 23.1-43.4 26.7-1.7 0.2-3.3 0.3-5 0.3-10.8 0-19.8-4.6-25.4-13-7.2-10.8-7.6-26.6-1.1-42.2q0-0.3 0-0.6c0-0.2-0.4-0.4-0.6-0.4-0.3 0-0.7 0.3-1.1 0.9l-1.8 3c-14.9 24.4-33.4 54.7-71.3 56.9h-4.8zm46.6-143.7c-7.7 0-16.9 6.4-24.6 17.1-8.2 11.5-11.6 37.3-6.4 49.2 5.4 12.5 10 13.9 11.7 13.9 1.7 0 0.7 0 1.1-0.2 1.8-0.6 1.8-1.6 1.8-4.2 0-2.6 0-8.5 5.4-15.7 5.4-7.2 22.9-12.2 33.4-13.2 12.8-1.3 23.1-15.1 24.4-26.7 0.4-3.5-0.2-6.1-1.7-7.8-1.5-1.7-3.6-2.4-6.6-2.4-8.6 0-21.8 6.8-31.3 16.3-9.5 9.5-1.7 1.4-2.2 1.4-0.3 0-0.6-0.2-0.8-0.4-0.9-1.3 0.5-6.1 2.6-12.8 0.4-1.2 0.7-2.3 1-3.2 1-3.2 0.7-6.1-0.8-8.2-1.5-2.1-3.9-3-7-3z"/><path  d="m1092.3 223.9c5.1 0 10.2 1.1 14.7 3.4 19.2 9.6 11.7 28.6 10.8 32 2.8-2.2 5.3-4.7 8.3-5.9 10.6-4 19.2-5.7 26.1-5.7 26.1 0 28.8 23.6 28.8 32.1 0 26.3-16.6 31.8-34.3 44.5-15.3 11-27.6 31.8-15.4 50 4.5 6.7 13.9 13.1 26.3 16 22.2 5.3 17.6 34.5-30.2 40.4-1.7 0.2-3.3 0.3-5 0.3-25.5 0-38.1-25.6-26-54.4 0.2-0.7-0.3-1.5-1-1.7h-0.2c-0.5 0-1 0.3-1.5 1.1-15 24.5-33.6 57.4-72.8 59.6-1.5 0-3 0.1-4.5 0.1-28.3 0-43-15.7-47-29-10-33.9 9.3-77.6 33.1-111.5 18.9-26.9 29.2-39 47.2-53.1 13.4-10.5 28.4-18.2 42.3-18.2m0.2-1c-16 0-32.2 10-42.9 18.5-17.5 13.7-27.7 25.2-47.5 53.3-13.2 18.8-23.3 38.1-29.4 56-7.3 21.5-8.6 40.5-3.9 56.3 4 13.7 19 29.7 47.9 29.7 28.9 0 3 0 4.5-0.1 38.2-2.1 56.8-32.6 71.8-57.1l1.8-3c0.3-0.5 0.6-0.7 0.7-0.7 0 0 0 0.2 0.2 0.3-6.6 15.7-6.2 31.6 1.1 42.6 5.7 8.5 14.8 13.2 25.8 13.2 11 0 3.4-0.1 5.1-0.3 13.6-1.7 24.9-5.4 32.7-10.8 6.8-4.7 10.8-10.5 11.1-16.4 0.4-7.2-4.8-13-13.5-15.1-11.3-2.7-20.9-8.5-25.7-15.6-6.8-10.1-5.1-20.1-2.5-26.7 3.2-8.1 9.6-16.1 17.7-21.8 3-2.1 6-4.1 8.8-6 13.9-9.1 25.9-17 25.9-39.3 0-22.3-0.6-12.5-4.7-19.8-5-8.9-13.4-13.4-25.1-13.4-11.7 0-16.4 1.9-26.5 5.7-2.3 1-4.3 2.3-6.1 4 1.2-4 1.6-8.3 1.1-12.4-1-7.8-5.5-13.7-13.4-17.7-4.7-2.3-9.9-3.5-15.2-3.5zm-48.4 150.2c0.4 0 0.8 0 1.2-0.2 5.1-1.7-1.9-7.7 7.5-20.1 5.3-7 21.8-11.9 33.1-13 13-1.3 23.5-15 24.9-27.1 0.8-7.6-2.9-10.8-8.8-10.8-8.7 0-22 6.9-31.6 16.4-0.9 0.9-1.5 1.3-1.9 1.3-2.1 0 1.7-10.4 3.3-15.8 2.1-7-1.7-11.9-8.3-11.9-6.6 0-16 4.9-25 17.4-8.5 11.9-11.6 37.9-6.5 49.7 4.7 10.9 9.1 14.2 12.1 14.2m-0.1-1c-1.6 0-5.9-1.3-11.2-13.6-5.1-11.8-1.8-37.3 6.4-48.7 7.6-10.6 16.6-16.9 24.1-16.9 7.5 0 5.2 1 6.6 2.8 1.4 1.8 1.7 4.7 0.8 7.8-0.3 1-0.6 2.1-1 3.2-2.5 8.2-3.4 11.9-2.4 13.2q0.4 0.6 1.2 0.6c0.5 0 1.5-0.5 2.6-1.5 9.4-9.3 22.5-16.1 30.9-16.1 8.4 0 4.9 0.8 6.2 2.2 1.3 1.4 2 4.1 1.6 7.4-1.3 11.4-11.4 25-24 26.3-9.9 1-27.8 5.5-33.8 13.4-5.6 7.4-5.6 12.6-5.5 16 0 2.5 0 3.2-1.5 3.7-0.3 0-0.6 0.1-0.9 0.1z"/><path class="u" d="m1456.1 368.4c0 0-273.3 8.8-345.4 101.3-31.9 41-11.3 116.5 81.4 112 58.8-2.9 76.9-65.3 65.3-64.9-11.8 0.4-19.6 0.7-18.5-12.2 1.2-14.7 36.3-72.7 154.9-94.5 118.6-21.8 62.2-41.7 62.2-41.7z"/><path class="u" d="m1516.3 496.9c-6.1 0-12.2-0.4-18.2-1.3-12.9-1.9-25.5-5.2-37.7-10-32.5-12.9-57.7-36.2-69-64-3.3-8.1-5-16.9-4.8-25.7-9.8 16.7-24.8 24.9-46.7 25.5h-0.6c-10.1 0-21.9-6.8-30-17.3-9.5-12.2-12.7-28.1-8.6-43 7.2-27.3 30.2-49.3 34.8-53.4 10.1-9.2 16.6-20 17.6-25.4 1.8-10.5-2.5-17.1-7-24-5.5-8.4-12.4-18.8-1.3-33.4 8.1-10.8 21.8-17.2 36.8-17.2 15 0 25.3 4.8 33.5 13.2 7.2 7.4 10.9 17.1 10.6 28 0 2.5-0.3 5-0.6 7.5 16.2-13.8 34.2-22.6 48.3-22.6 14.1 0 25.6 9.8 28.5 26.9 3 17.6-9.2 33.1-18.9 45.7-3.2 4.2-6.3 8.1-8.6 11.7-9 14.4-13.4 27.2-13.7 39.9 23.8-4.6 45.6-7 64.8-7 73.4 0 92.2 33.8 96.2 44.2 8.3 21.4 6.5 41.7-5.2 58.6-9.2 13.4-24.4 24.6-43.9 32.3-17.9 7-37 10.6-56.2 10.6v0.2zm-32.9-94.7c7.1 6.8 16.7 13.8 25.3 13.8 8.6 0 8.6-2 12.3-6.2 0.2-0.2 0.4-0.4 0.5-0.6-1.6-1.2-7.3-4.2-25.9-6.1-4.3-0.4-8.5-0.7-12.2-0.9zm-75.7-88.1c-4.8 0-9.2 2.5-11.5 6.7-6.3 12-5.1 25.4-4 38.3 0.2 2.3 0.4 4.5 0.5 6.7 5-13.6 12.5-27.1 20.5-40.3 1.2-2 3.1-5.8 1.7-8.3-1-1.9-4-3.1-7.3-3.1z"/><path  d="m1381.6 214c19.4 0 38.6 12.1 38 35-0.4 16.8-7.9 28.9-10.3 33.1 17.6-23.4 44.7-42 64-42 19.3 0 19.9 6.4 22.5 21.8 3.4 20.2-17.3 38.2-26.7 53.2-12 19.3-15.8 35.3-14.4 50.4 28.1-5.9 51.3-8.2 70.6-8.2 70.4 0 87.3 31.7 90.6 40.3 23.6 60.9-45.5 93.4-99.7 93.4-54.2 0-11.6-0.4-17.3-1.2-12.4-1.8-24.6-5-36.3-9.6-28.3-11.2-53.9-32-65.6-60.7-12.6-30.9 4.6-63.3 21.4-90.8 8-13-0.7-20.6-10.7-20.6-7-0.1-13.5 3.7-16.9 9.9-12.6 24.2 1.3 52.2-6.4 69-9.4 20.6-24.2 27.9-44.8 28.5h-0.4c-15.4 0-40.7-22-32.7-52.7 5.7-21.7 22.9-41.3 33-50.5 10.1-9.2 18.1-21.1 19.5-28.9 4.8-27.6-25.4-33.6-9.5-54.8 7.5-9.9 19.8-14.8 32-14.8m0.1-11.9c-16.9 0-32.5 7.3-41.7 19.6-5.9 7.8-8.1 15.9-6.7 23.8 1.2 6.6 4.7 11.9 7.8 16.5 4.8 7.3 7.5 11.8 6.1 19.6-0.7 3.9-6.5 13.6-15.7 22-4.8 4.3-29 27.4-36.5 56.3-4.5 17.2-1.1 34.4 9.6 48.2 9.2 11.9 22.8 19.6 34.8 19.6h0.8c13-0.4 23.6-3.1 32.4-8.5 3.4-2.1 6.6-4.5 9.5-7.3 0.9 4.2 2.1 8.3 3.8 12.2 6.3 15.4 16.3 29.4 29.8 41.3 12.6 11.1 27 19.9 42.6 26 12.6 4.9 25.6 8.4 39 10.3 6.3 0.9 12.7 1.3 19.1 1.3 20 0 39.8-3.8 58.5-11.1 20.7-8.2 36.8-20.1 46.7-34.5 12.8-18.7 14.8-40.9 5.8-64.2-2.4-6.3-8.9-18.5-24.7-29.1-18.8-12.6-44.8-19-77.2-19-17.4 0-36.9 1.9-58 5.6 1.5-9.2 5.5-18.8 12.1-29.3 2.1-3.4 5.1-7.2 8.2-11.2 10.5-13.4 23.5-30.2 20.1-50.4-1.7-10.2-5.7-18.1-11.8-23.7-6-5.4-13.8-8.2-22.6-8.2-14.8 0-29.6 7.8-39.4 14.3-0.8 0.5-1.6 1.1-2.4 1.6-0.7-10.2-5.1-19.7-12.2-27-9.3-9.5-23.1-15-37.8-15zm127.1 220.1c5.8 0 11.6-2.3 16.8-8.2 15.9-17.9-53.8-18.1-56-18.1 0 0 19.7 26.3 39.3 26.3m-111.3-81.4c0-5.9 1.5-11.7 4.1-17 1.7-3.2 5.1-3.4 6.1-3.4 0.5 0 1 0 1.4 0.1-0.3 0.7-0.6 1.4-1 2-3.6 5.9-7.2 12-10.6 18.3z"/><path class="b" d="m383.1 93.7c0 0 74.2 40.7 54.9 112.9-6.1 22.9 23 16.5 13.5-37.6-7.9-45-43.1-70.1-68.4-75.2z"/><path class="b" d="m1561.5 371.1c0 0 48 23.8 34.7 68.6-4.2 14.2 21.3-0.5 11.6-31.7-7.6-24.6-28.4-33.7-46.2-36.9z"/><path class="b" d="m212.1 237c0 0-17.5-39 11.1-71.7 9.6-11-11.3-17.6-24.8 12.2-13 29 3 49.6 13.7 59.5z"/><path class="b" d="m907.5 279.1c0 0 0.3-35.8-14-47-7.3-5.8 13.3-9.1 17.3 8.4 3.9 17 0 30.1-3.3 38.6z"/><path class="b" d="m834.6 304c0 0 9.4-23.3-9.1-35.5-6.2-4.1 11.1-7.4 15.7 7.7 3.1 10.1 0 19.2-6.6 27.8z"/><path class="b" d="m963.7 295.5c0 0 9-17.9-2.3-26.9-5.8-4.6 9-10.3 14 2.8 5.7 14.8-6.7 21.9-11.7 24.1z"/><path class="b" d="m1160.6 307.1c0 0 11-37.3-7.8-47.5-8.4-4.6 11.6-12.7 18.1 7 3.6 10.9 2.1 32.1-10.3 40.5z"/><path class="b" d="m1106.3 259.6c0 0 1.1-19.4-19-24.1-9.4-2.2 18-12.7 24.4 7.1 0.5 1.3 1.3 8.9-5.4 17z"/><path class="b" d="m1160.7 410.1c0 0 1.8-9.1-13.9-12.8-7.3-1.7 11.9-5.6 16.4 4.6 0.7 1.6-0.3 6.4-2.6 8.2z"/><path class="b" d="m1075.5 306.1c0 0 7.9-18.4-13-20-7.9-0.6 12.5-11.8 17.8 4.6 0.4 1.1 0.8 8.7-4.8 15.4z"/><path class="b" d="m294.2 522.7c0-8.8 56.7-17.3 99.4-85.4 5.1-8.1 11.7-12.4 16.4-4.9 3.9 6.2-11.3 26.9-29.5 46.8-19.1 20.9-56.5 45.2-77 48.6-5.3 0.9-9.3 0.6-9.3-5z"/><path class="b" d="m230.7 436.5c7.4-4.2 66.8-32.9 60.7-86.2-1-8.6 8.8-12.8 14-6.7 4.4 5.1-0.9 75.5-70.9 101.8-7.8 3-8.3-6.4-3.8-8.9z"/><path class="b" d="m55.3 496.2c7.3-4.4 30.3 42.7 99.8 42 18.2-0.2 24.2 15.3 4.2 13.8-5.9-0.5-12.3-1.1-18.9-2-37.6-4.9-70-25.1-84.6-42.3-3.9-4.5-5.9-8.3-0.6-11.5z"/><path class="b" d="m1432.7 444.4c5.3-3.2 31.2 31.9 90.4 31.6 6.7 0 9.2 0.7 7.7 4.6-1.3 3.5-17 3.5-35.8 1.1-24.4-3.2-52.5-18.6-62-29.8-2.4-2.9-3.7-5.4-0.3-7.5z"/><path class="b" d="m58.7 367.1c13.3 7.5 42.7-34.1 77.6-24.5 10.8 3 24.4-22.5-19.8-19.3-24.4 1.8-71.2 36.3-57.8 43.8z"/><path class="b" d="m54.3 385.9c-3.9 0-7-3.1-7-7 0-3.9 3.1-7 7-7 3.9 0 7 3.1 7 7 0 3.9-3.1 7-7 7z"/><path class="b" d="m1590.5 460.1c-2.6 0-4.7-2.1-4.7-4.7 0-2.6 2.1-4.7 4.7-4.7 2.6 0 4.7 2.1 4.7 4.7 0 2.6-2.1 4.7-4.7 4.7z"/><path class="b" d="m956.1 341.1c0 2.6-10.8 9.2-21.8 9.2-11 0-13.2-5.9-11.3-7.7 2.7-2.7 7.3 4 17.9 2.7 7.7-0.9 15.3-6.7 15.3-4.1h-0.1z"/><path class="b" d="m1120.9 533.6c6.9 0 2.7-8.5 2.8-21.6 0.2-16 5.4-38.6 28.3-56.8 8.8-7-2.7-7.1-20.3 8.9-32.9 29.7-22.7 69.5-10.8 69.5z"/><path class="b" d="m1127.8 551.7c-3.9 0-7-3.1-7-7 0-3.9 3.1-7 7-7 3.9 0 7 3.1 7 7 0 3.9-3.1 7-7 7z"/><path class="b" d="m283.4 535.5c-3.2 0-5.7-2.5-5.7-5.7 0-3.2 2.5-5.7 5.7-5.7 3.2 0 5.7 2.5 5.7 5.7 0 3.2-2.5 5.7-5.7 5.7z"/><path class="u" d="m487.9 403.4c-12.7 0-23.3-4.8-30-13.4-3.4-4.6-5.7-9.9-6.4-15.6-16.9 15.9-39.5 26.1-59.6 26.1-20.1 0-21.7-3.7-28.4-10.6-6.7-6.9-9.9-16.4-9.5-28.3 0.6-20.3 15-49.7 36.4-74.9 23.9-28 50.6-44 73.3-44 22.7 0 12 1.1 17.5 3.5 8.3 3.5 12.9 8.3 13.7 14.2 1.4 11.2-11.2 20.8-24.6 31-6 4.6-12.2 9.3-15.7 13.3-10.6 12.1-13.4 26.9-11.8 29.7 1.7 1.5 3.3 2.3 4.7 2.3 4.6 0 11.1-7.9 16-19.3 0.7-1.7 1.4-3.5 2.2-5.3 5.1-12.5 11.4-28.1 24.2-35.9 9.6-5.8 20.7-8.9 31.9-8.9 11.2 0 20.4 3.4 25.7 9.6 2.9 3.5 6.1 9.5 4.5 18.8-0.9 5.3-3.7 11-6.4 16.5-2.8 5.7-6.3 12.8-5.5 16.4 0 0.2 0 0.3 0.2 0.5 0.3 0 0.7 0.1 1.1 0.1 6.6 0 21.8-9.9 26-24 0.7-2.6 3.1-4.3 5.8-4.3 2.7 0 0.8 0 1.2 0.1 3.1 0.6 5.2 3.4 4.9 6.5-3 29.3-32.1 74.9-65.3 89.7-8.2 3.8-17.1 5.8-26.1 6z"/><path  d="m463.7 236.7c-13.3 0-27.5 4.8-42 14.1-12.2 7.8-24.6 18.9-35.8 32.1-22.7 26.5-37.2 56.6-37.9 78.6-0.5 16.9 5.8 27.1 11.2 32.7 7.9 8.1 19.2 12.4 32.8 12.4 13.6 0 27.6-4.1 41.2-11.4 5.3-2.9 10.4-6.2 15.2-9.9 1.3 3 2.9 5.9 4.9 8.5 7.8 10.2 20.1 15.8 34.8 15.8 9.9-0.2 19.6-2.4 28.5-6.5 35.5-15.8 65.5-62.7 68.8-94.3v-1.5c0-6.3-4.9-11.6-11.2-12.1h-0.9c-0.7 0-1.5 0-2.2 0.2-3.5 0.7-6.5 2.8-8.3 5.9-0.5 0.9-0.9 1.8-1.2 2.8-2.2 7.3-7.9 13-12.8 16.3 0.8-1.9 1.8-3.7 2.4-5.1 2.9-5.9 5.8-12 6.9-18.1 2-11.5-2.1-19.3-5.9-23.7-6.4-7.6-17.2-11.8-30.3-11.8-13.1 0-14.2 1.2-21 3.4q0.3-2.6 0-5.1c-1-8.2-6.9-14.6-17.4-19-6.3-2.6-13-4-19.9-3.9v-0.4zm0 12.1c5.2 0 10.4 1 15.2 3 30 12.6-14.9 33.1-28.8 49-11.5 13.3-17 32.9-11.4 38.1 3.1 2.8 6.1 4 8.9 4 11.3 0 19.8-18.8 21.5-22.9 5.3-12.5 11.2-30.6 24-38.4 8.7-5.2 18.6-7.9 28.7-8 14.6 0 26.8 6.5 24.2 21.4-1.8 10.7-13.9 25.5-11.8 35.2 0.8 3.7 3.5 5.4 7.2 5.4 10 0 27-12.3 31.8-28.4-2.7 26.6-29.8 70.5-61.8 84.8-7.4 3.5-15.4 5.3-23.6 5.5-21.9 0-35.6-16.3-29.1-40.3-16.7 23.3-44.9 37.4-66.9 37.4-22 0-32.6-9.9-31.9-32.6 1.2-38.9 57.5-113 103.6-113m-14.7 80.8c0.8-4.8 4-13.6 10.5-21.1 0.8-0.9 1.7-1.8 2.6-2.6-0.5 1.3-1.1 2.6-1.6 3.9-0.8 1.8-1.5 3.6-2.1 5.2-3.3 7.8-7 12.6-9.3 14.6z"/><path class="b" d="m431.2 341.6c0 0-7.3-25.8 20.1-51.1 6.8-6.3-11.6-8.6-20.5 10.3-8.6 18.4-8 35.4 0.4 40.8z"/><path class="b" d="m1043.9 381.4c0 0-27-6.5-21.3-43.4 1.4-9.2-13.4 0.5-8.6 20.8 4.7 19.7 17.3 24.9 29.9 22.5z"/><path class="b" d="m527.5 334c0 0-7.1-15 0.6-45.4 2.3-9 13-5.9 8.5 9.7-5.5 19.4-11.6 21.6-9.1 35.7z"/><path class="u" d="m640.3 287.2c19.4-17.9 48.8-32.1 68.3-25 22.3 8.1 28.5 33.5 19.7 56.8-8.8 23.3-20.4 50.6-53.1 69.5-23.3 13.5-63 7.2-72-11.1-4.3 10.6-29.9 79.8-47.9 121.1-12.2 28-23.9 32.2-35 33.2-16 1.5-30.9-3-27.4-34.6 4.1-36.7 33.6-101.2 39.8-114.9 11.7-26.3 48-66.9 41.3-92.3-11.5-44 14.5-63.6 31.7-66 24.7-3.5 42.7 5.5 47.4 20.9 6 19.7-6.5 27.5-12.7 42.4zm20.7 18.9c-12.6-6.7-22.2-0.9-33.7 25.9-12.7 29.5 12.9 28 24.4 13.5 3.3-4.2 5.7-7.8 9.3-15.8 5-11.2 7.4-19.7 0-23.6z"/><path class="b" d="m630.5 288.4c0 0 14.3-31 5.4-46.9-4.6-8.1 13.8-9.3 12.5 11.5-1 16-12.1 24.1-17.8 35.4z"/><path class="b" d="m706.1 348.1c0 0 19.1-44.1 1.8-67.1-6.9-9.1 19.2-7.1 17.2 18.4-1.2 15.8-10.6 37.6-19 48.6z"/><path class="u" d="m1307.5 313.5c5-14.6 36.2-16 21.6-45.8-18.4-37.5-66.2-16.4-88.8 17.2 1.8-3.8 7.9-14.7 7.4-29.4-1-32.7-44.8-35.9-58.4-16.2-10.2 14.6 7.6 20.2 3.3 51.4-1.1 9.1-5.2 17.6-11.8 24-8.3 8.4-24.2 14.1-34 25.7-20.4 24.1 2.7 41.6 32.7 42.6 18 0.5 36.1-8.3 41.9-27.2 4.7-15.3-14.9-30.3-2.6-48.6 11.4-17 43.5-4 33.1 15.2-8.4 15.6-31.3 40.5-7.3 55 5 3 16.9 5.5 33.4 2.5 21.5-4 38.4-10.5 32.2-30.6-3.5-11.4-10.2-14.2-2.8-35.7h0.1z"/><path class="b" d="m1312.3 297.8c0 0 11.9-16.7-3.9-32.2-5.3-5.2 4.1-11.6 12.2 0.4 2.1 3.1 7.3 12.2 5.4 17.8-2.1 6.1-10 11.9-13.7 14z"/><path class="b" d="m1476.2 286.5c0 0 7.5-25.5-8.1-33.5-6.6-3.4 6.5-11.5 14.5 0.5 3.2 5.3 4.3 11.6 3 17.7-1.4 6.3-5.8 13.2-9.4 15.4z"/><path class="b" d="m1232 498.8c-6.1 9.4-2.7 30 17.8 24.3 9.9-2.7 1 10.5-13.2 7.8-9.6-1.8-15.4-11.1-16.1-17-1.6-13.1 5.8-17.6 11.5-15.2z"/><path class="b" d="m1239.7 263.8c0 0-5.9-20.4-26-25.2-9.4-2.2 11.5-11.9 24.4 7.1 0.8 1.2 5.1 9.6 1.6 18.1z"/><path class="b" d="m1412.8 255.3c0 0-4.6-21.9-27.5-27-9.4-2.1 11.5-11.9 24.4 7.1 0.8 1.2 4.7 7.9 3.1 19.9z"/><path class="b" d="m1259.2 316.9c0 0 5.9-14.8-14.1-21.1-4.3-1.3 13-8 18.3 7.4 1.5 4.4 0 9.1-4.1 13.7z"/><path class="b" d="m1427.7 316.9c0 0 1.2-12.1-14.5-15.8-7.3-1.7 11.4-10.6 18.8 1.7 2.1 3.5 1.1 7.8-4.3 14z"/><path class="b" d="m672.8 315.3c0 0 0.8-15.1-14.8-18.8-7.3-1.7 14-9.9 19.1 5.5 0.3 1 1 7-4.2 13.3z"/><path class="b" d="m674.6 373.9c4.6-3.2 7.4-1.6 6.4 1.4-1.8 5.4-26 20.5-52.3 12-23.2-7.5-15-13.9-10.7-10.9 11.9 8.3 42.5 7.4 56.6-2.5z"/><path class="b" d="m802.1 361.2c4.2-3.3 6.6-1.6 5.7 1.4-1.6 5.5-29 18.9-52.6 10.5-20.8-7.4-9.7-13.2-5.8-10.2 10.7 8.3 39.9 8.2 52.6-1.8z"/><path class="b" d="m424.6 370.9c4.2-3.3 6.6-1.6 5.7 1.4-1.6 5.4-27.7 22-48.5 13.3-17.6-7.4-11.5-16.1-7.8-12.9 13 11.1 37.8 8.2 50.5-1.7z"/><path class="b" d="m520.1 371.9c4.2-3.3 6.6-1.6 5.7 1.4-1.6 5.5-23.8 20.8-44.4 15.3-21.4-5.7-11.6-16-7.8-12.9 10.7 8.3 33.8 6.2 46.5-3.8z"/><path class="b" d="m534 507.9c2.9-3.3 6.5 0.4 5.9 3.4-1.2 5.5-17.6 18.5-31.1 11.7-11.4-5.7-9.1-15.8-6.4-12.9 7.2 8.2 22.9 7.9 31.6-2.2z"/><path class="b" d="m870.4 373.4c3.2-2.9 4.3 1 3.3 3.9-1.8 5.3-18.6 16.8-31.6 10.7-12.6-6-6.5-18-4.6-14.5 5.9 11.3 19.5 12.3 32.9 0z"/><path class="b" d="m1198.9 362.5c3.6-2.9 5.1 1.1 4 4-2 5.3-24.7 14.9-39.1 6.8-15.5-8.6-8.4-17-5.8-13.7 7.2 9.1 29.8 11.6 40.9 2.9z"/><path class="b" d="m1147.7 413.7c3.6-2.9 5.3 1.1 3 4-3.5 4.4-26.3 10.9-39.6 4.5-12.4-6-8.4-17-5.8-13.7 7.2 9.1 31.3 14 42.4 5.2z"/><path class="b" d="m1363.7 393.6c3.6-2.9 5 1.1 3.9 4-1.9 5.3-24.1 14.9-38.1 7-15.1-8.6-8.2-16.9-5.6-13.6 9.1 11.5 29 11.5 39.8 2.6z"/><path class="b" d="m1294.7 361.3c4.2-1.9 5.1 1.1 4 4-2 5.3-34.1 16.8-48.7 6.7-14.6-10.1-6-15.3-3.3-11.9 7.2 9.1 19 14 48.1 1.2z"/><path class="b" d="m1044.3 414.1c4.2-1.9 6.4-1.2 4.7 1.3-6.1 8.7-37.9 16.8-58.7 5.3-15.5-8.6-6-15.3-3.3-11.9 7.2 9.1 28.2 18 57.3 5.3z"/><path class="b" d="m437.2 261.6c1.6-5.4 36.9-15.3 37-2.8 0 2.5-3 1-13.1 0.4-14.4-0.8-26.2 9.9-23.9 2.4z"/><path class="b" d="m576.9 316c-4.3 11.1-13.5 18.8-19.2 21.2-5.7 2.4-0.4 5.6 1 5.2 11.3-2.8 21.4-12.8 24.4-24.4 1.7-6.7-3.8-8.4-6.2-2z"/><path class="b" d="m594.4 379.8c0 0-28.6 81.2-45.5 115.8-3.2 6.4-11 5.2-7.3-3 5.6-12.3 22.1-49.5 42.8-107.7 4-11.3 12.6-12.5 10-5z"/><path class="b" d="m1570.4 367.4l-6.4-44.6-6.8 44.6-22.4 3.8 22.9 8.2 5.8 44.1 7.6-42.9 24.1-6.7-24.8-6.5z"/><path class="b" d="m817.1 821.6c3.9 2.4 0.9-12.3-6-16.4-4.7-2.9-12-3.4-22.8-2.2-8.8 0.9-17.3 3.3-25.3 7.1 0 0 15.5 7.1 30 7.4 16.3 0.3 17.5 0 24.1 4.2z"/><path class="v" d="m794.2 818.9c-5 0-9-4-9-9 0-5 4-9 9-9 5 0 9 4 9 9 0 5-4 9-9 9z"/><path  d="m817.8 825.4c-0.4 0-0.9 0-1.4-0.2-0.4 0-0.8-0.2-1.2-0.5-5.4-3.4-6-3.4-19.9-3.6h-2.5c-15.1-0.4-30.7-7.5-31.4-7.8-1.2-0.6-2-1.8-2-3.2 0-1.4 0.8-2.6 2-3.2 8.4-4 17.3-6.5 26.4-7.4 12.2-1.4 19.7-0.6 25 2.7 6.4 3.8 9.5 13.5 9.4 17.8 0 2.9-1.4 4.2-2.4 4.8-0.4 0.2-1.1 0.5-2 0.5zm-45.3-15.4c5.6 1.8 13.2 3.9 20.5 4h2.4c10.9 0.2 14.7 0.3 19.1 2.3-0.9-2.9-2.8-4.6-5.3-6.1-3.8-2.3-10.3-2.9-20.6-1.7-5.5 0.6-10.9-0.3-16.1 1.5z"/><path  d="m794.5 813.3c-1.9 0-3.4-1.5-3.4-3.4 0-1.9 1.5-3.4 3.4-3.4 1.9 0 3.4 1.5 3.4 3.4 0 1.9-1.5 3.4-3.4 3.4z"/><path class="b" d="m889.8 818.4c-3.8 2.3-0.8-9.2 5.8-13.2 4.5-2.7 23.9-7.2 33.6-3.7 5.8 2.1 9.6 7.8 9.6 7.8 0 0 0 10.3-13.8 8.8-20.3-2.1-29-3.6-35.2 0.2z"/><path class="v" d="m914.5 818.9c-5 0-9-4-9-9 0-5 4-9 9-9 5 0 9 4 9 9 0 5-4 9-9 9z"/><path  d="m888.9 822.2c-1.6 0-2.9-0.8-3.6-2-2.5-4.1 2.2-14.2 8.4-18 5.4-3.2 25.8-7.9 36.6-4 6.8 2.5 11.1 8.9 11.3 9.2 0.4 0.6 0.6 1.2 0.6 1.9 0 0.7-0.1 5.3-4.1 8.9-3.2 2.9-7.8 4-13.6 3.4-2.3-0.2-4.4-0.5-6.4-0.7-14.1-1.5-21.5-2.3-26 0-0.2 0.2-0.4 0.3-0.6 0.4-0.9 0.6-1.8 0.8-2.7 0.8zm11.6-9.7c4.8 0 10.7 0.6 18.5 1.5 2 0.2 4.2 0.4 6.4 0.7 3.7 0.4 6.5-0.1 8.1-1.6 1-0.9 1.5-2 1.7-2.8-1.2-1.5-3.8-2.3-7.1-3.5-8.6-3.1-26.9 1.2-30.6 3.4-1.9 1.1-3.4 1.2-4.4 3 2.2-0.5 4.6-0.8 7.4-0.8z"/><path  d="m914.5 813.3c-1.9 0-3.4-1.5-3.4-3.4 0-1.9 1.5-3.4 3.4-3.4 1.9 0 3.4 1.5 3.4 3.4 0 1.9-1.5 3.4-3.4 3.4z"/></svg>