<svg version="1.2" xmlns="http://www.w3.org/2000/svg" viewBox="0 0 991 619.97" width="961.23" height="619.97"><defs><clipPath clipPathUnits="userSpaceOnUse" id="cp1"><path d="m733 297.18c-9.6 40.14-6.77 99-51.45 150.22-12.47 14.3-119.9-205.51-81.62-218.8 13.25-4.6 147-13.38 151.19-3.71z"/></clipPath></defs><style>.a{fill:#ff6c93;stroke:#000;stroke-linecap:round;stroke-linejoin:round;stroke-width:10}.b{fill:#fff;stroke:#0e0e0e;stroke-linecap:round;stroke-linejoin:round;stroke-width:10}.c{fill:#3b57ff;stroke:#0e0e0e;stroke-linecap:round;stroke-linejoin:round;stroke-width:10}.d{fill:#fc8ba4;stroke:#000;stroke-linecap:round;stroke-linejoin:round;stroke-width:10}.e{fill:#fff;stroke:#0e0e0e;stroke-linecap:round;stroke-linejoin:round;stroke-width:8}.f{fill:#fff}.g{fill:#f39d2f}.h{fill:none;stroke:#000;stroke-linecap:round;stroke-linejoin:round;stroke-width:10}.i{fill:none;stroke:#0e0e0e;stroke-linecap:round;stroke-linejoin:round;stroke-width:10}.j{fill:none;stroke:#0e0e0e;stroke-linecap:round;stroke-linejoin:round;stroke-width:8}.k{fill:none;stroke:#000;stroke-linecap:round;stroke-miterlimit:10;stroke-width:8}.l{fill:#fc8ba4;stroke:#000;stroke-linecap:round;stroke-linejoin:round;stroke-width:6}.m{fill:none;stroke:#ffccdc;stroke-linecap:round;stroke-linejoin:round;stroke-width:4.4}.n{stroke:#0e0e0e;stroke-miterlimit:10;stroke-width:3}.o{fill:none;stroke:#000;stroke-linecap:round;stroke-linejoin:round;stroke-width:8}.p{fill:#efcdc2}.q{fill:#efcdc2;stroke:#000;stroke-linecap:round;stroke-linejoin:round;stroke-width:10}</style><path class="a" d="m90.5 288.1c0 0 39.9-62.3 131 14.2 79.5 66.8-12.9-82.6-12.9-82.6 0 0-29.3-2.1-63.3 11.3-34.5 13.7-42.3 28.6-54.8 57.1z"/><path class="b" d="m407.9 436.6l-64.9 71.2c0 0-4.7 1.5-19.1 6.7-8.3 3-28.3 4.5-41 17.7-12.7 13.2-48.8 44.6-34.5 53.9 14.2 9.2 29.9-6.1 72.2-23.9 42.4-17.9 162.7-44.2 221-98 58.4-53.9-116.1-48.7-133.7-27.6z"/><path class="c" d="m364.4 484.3l-21.4 23.5c0 0-4.7 1.5-19.1 6.7-8.3 3-28.3 4.5-41 17.7-12.7 13.2-48.8 44.6-34.5 53.9 14.2 9.2 29.9-6.1 72.2-23.9 15.7-6.6 41.9-14.4 71.7-24.2 51-16.9-27.9-53.7-27.9-53.7z"/><path class="d" d="m187.5 263.6c0.9 138 129.6 223 258 216.8 128.5-6.2 221.5-213.7 269-224.5-191-71.9-271.8-45.7-322.3-14.7-134.6 82.9-119.6-63.9-247-10.2 0.1 0 42.1-2.1 42.3 32.6z"/><path class="b" d="m733.8 336.8c0-0.1 150.9-100.9 186.6-108.9 25.3-5.7 19.5-2.9 37.4-8.1 17.6-5.1 50-50.6 5.5-61.1-22.4-5.2-37.1 12.1-43.2 24.5-6 12.4-179.6 72.7-179.6 72.7"/><path class="e" d="m985.4 177.3c0 0-17 1.7-27.2 11.2"/><path class="e" d="m969.6 160.6c0 0-20.2 7-26 14.8"/><path class="f" d="m469.8 465.8c-55.8 1.5-102.3-29.1-143-73-40.8-43.9-36.4-173.2-36.4-173.2 17.8-73.8-22.6-76.5-35.7-79.6-13-3.1-19.7 2.4-29.9 0.4-10.2-2-20.4-9.1-21.7-19.4-1.4-11.9 7.4-21.8 17.6-26.5 10.3-4.8 23.2-7.1 34.1-5.2 63.7 8.3 81.4 65.1 81.4 65.1 7 16.2 6 163.5 6 163.5 13.1 47.6 35.1 58.3 52.1 58.6"/><path class="g" d="m286.4 163.1z"/><path class="g" d="m281 228.7z"/><path class="g" d="m272.7 145.7c4.9-12.9 8.1-41.1 8-47.7 7.2 3.1 15.1 7.3 21.3 12.2l-14.7 48.7c-4-4.9-14.6-13.2-14.6-13.2z"/><path class="g" d="m293.4 169.2c5.4-13.2 18.8-41.3 22.2-48.5 0.4 0.4 31.3 35.7 22.1 52.4l-44.3 12c-2.5-6.5 2.9-11 0-15.9z"/><path class="g" d="m292.4 210.1c8.9-7.5 42.8-14.5 49.4-18.5 2.4 11.4-2.4 23.6 0.2 37.1h-51.8c-0.2-4.5 2.8-15.7 2.2-18.6z"/><path class="g" d="m342.5 243.7c2.6 13.8-2.6 30.2-0.4 42.4l-52.4 1c-0.9-5.3-0.9-10.2-1.5-15.1 10.6-8.9 48.7-24.9 54.3-28.3z"/><path class="g" d="m398.3 378.6c-46.8 13.2-58.4-73.1-58.4-73.1l-47.5 15.2c0 0 8.9 36.1 33.5 68.8 29 38.5 73.6 55.7 73.6 55.7 0 0 28-6.8 41-29z"/><path class="h" d="m469.8 465.8c-55.8 1.5-102.3-29.1-143-73-40.8-43.9-33-138.7-33-173.2-0.1-34.2 11.3-70.2-39.1-79.6-13.2-2.4-19.8 2.5-30 0.4-10.2-2-20.4-9.1-21.6-19.4-1.4-11.9 7.4-21.8 17.5-26.5 29.2-13.5 106.4-0.6 115.5 60 2.8 18.5 6 163.4 6 163.4 13.2 47.7 35.1 58.4 52.1 58.6"/><path class="f" d="m739.1 293.5c-12.3 51.3-3.6 133.9-97.3 196.7-52.4 35.1-197 50.4-197 50.4 0 0-85.3-136.4-18.8-190 90.4-72.7 154.5-103.6 192.7-116.9q3.8-1.3 7.5-2.5 3.8-1.2 7.6-2.3 3.9-1 7.7-1.9 3.9-1 7.8-1.8c27.6-5.5 36.1-7.7 66.7-3.2 21 3.1 40.9-4.5 45.1 5.2"/><path class="i" d="m737.5 299.4c-12.2 51.4-4.2 133.3-101.2 190.8-78.8 46.7-197 50.4-197 50.4 0 0-85.3-136.4-18.8-190 90.5-72.7 145.7-106.4 184-119.7 13.2-4.6 32.2-4.3 39.3-5.7 27.6-5.5 36.2-7.7 66.7-3.2 21 3.1 41-4.5 45.2 5.2"/><path class="g" d="m651.3 278.2c12.2 32.4 18 60.3-17.2 40.7-35.2-19.6-89.8-36.1-75 15.6 14.8 51.7 4.3 112.4-28.3 74.5-32.6-38-74.4-44.8-80.4-12-5.9 32.8-42.9 65.4-45.5 15.8-2.7-49.6 63.4-126.7 220.3-184.5 156.8-57.8 16.3 24 26.1 49.9z"/><path class="f" d="m586.9 321.7c-21.7-2.8-167.7 9.6-198.5 14.8-54.6 9.1-62.8-34-47.4-47.6 17.5-15.5 32.2-19.8 52.3-2.3 13.9 12 46.9 0 89.1-9 16.6-3.6 28.3-5.9 40-7.8 56.6-9.6 64.5 51.9 64.5 51.9z"/><path class="i" d="m584.7 266.9c0 0-5.1-10.3-102.3 10.6-42.3 9.1-74.7 20.5-89.1 9-18-14.3-32.5-17.8-52.3 2.3-14.4 14.6-7.2 56.8 47.4 47.7 30.8-5.2 176.8-17.6 198.5-14.8"/><path class="j" d="m360 314.7c-2.5 2.6-17.7 1.6-24.3-0.6"/><path class="k" d="m361.5 298.1c0 0-13.5-1-20.5-9.2"/><path class="b" d="m412.2 496.6c-3 2.9-14.3 8.6-19.3 9.4-39.4 6.2-119.8-2.9-58.5 21.5 61.3 24.4 110.5 18.7 153.4 3.9 42.9-14.8 43-30.3 31.4-56.5-22.2-50.5-52.1-66.6-52.1-66.6"/><g clip-path="url(#cp1)"><path class="l" d="m719.2 309.1c-23.8-6.1-51.6 6.7-60.3 31.2-9.9 27.8 10.8 54.4 36.4 61 25.6 6.6 56.5-6.6 61.4-35.7 4.3-25.6-13.7-50.3-37.5-56.5zm23.2 54c-1.7 6.6-4.4 11.1-9.1 16.6-6.3-8.6-12.3-17.4-18.1-26.3 2.4-9.5 4.7-19.1 7-28.6 13.9 6.6 23.8 23.4 20.2 38.3zm-50.9 22.2q-1.7-0.8-3.2-1.7-1.6-1-3.1-2.1-1.5-1.1-2.8-2.3-1.4-1.3-2.6-2.6c5.5-2.7 10.9-5.3 16.3-8.1-1.5 5.6-3.1 11.2-4.6 16.8zm19.1-13c3.4 5 6.8 10 10.3 15q-1.7 0.6-3.5 1-1.8 0.4-3.6 0.7-1.9 0.2-3.7 0.3-1.8 0.1-3.7 0c1.4-5.7 2.8-11.4 4.2-17zm-1.7-51c-2.5 9.5-5.1 19-7.7 28.4-9.4 5.1-18.9 9.8-28.5 14.2-1.5-7-1.7-12.3 0.1-18.9 4-14.7 20.8-24.6 36.1-23.7z"/><path class="m" d="m735.7 326.3c10 7.7 15.8 20.9 13.5 33.8"/><path class="m" d="m676.8 382.5c-10.2-8.4-15.5-22.5-11-35.7"/></g><path class="f" d="m426.6 348.6c0 0-129.4 62.2-18.7 149.7l68.6-9.8c0 0-64.8-34.3-73.3-66.4-8.6-32.2 23.4-73.5 23.4-73.5z"/><path class="i" d="m421.9 349.7c0 0-7.1 5.9-12.2 9.6-23.9 17.6-86.5 65.8-1.8 139"/><path class="c" d="m413.1 548.8c-26.3 1.8-55-0.8-85.5-13.5-44.1-18.2-60.3-24.5-50-35.4 5.7-6 13.7-7.2 34.4-9.2 22.4-2.3 36.3-8.3 44.9 7.1 6.6 11.7 55.2-1.2 55.2-1.2 0 0 5.8 29 30.2 48.9 4.6 3.8-22.6 2.8-29.2 3.3z"/><path class="f" d="m669 246.5c29.3 11.2 56.5-3.1 72.7 2.2 26.9 8.9 36.1-11.6 43.3-15.4 0 0 10.7-5.2 15.6-16 5-10.9 13.3-31.6 13.3-31.6 3.2-31.9-20.9-66.5-20.9-66.5l-59.7-37.8c11.4-30.6 18.2-74 18.2-74-1.3-4.4-4-1.2-4-1.2l-39.1 64.9c-18.4 2.6-56.1 18-65.6 22.8l-2.5-1.3c-22.5-13.1-91.3-20.2-91.3-20.2-5.5 0.7-5.5 5.3-3.9 10v0.1c0 0 31.8 58.3 61 117v-0.1c7 21.9 4.7 27.5 9.3 41.6 0 0 24.3-5.7 53.6 5.5z"/><path class="g" d="m754.8 133.9c-15.8-16.3-29.5-17.2-34.3-20.4-5.6-3.8-20-4.7-25.6-0.9-5.4 3.6 4.1 7.6 5.7 14 1.6 6.3 7.7 11.3 10.3 29.2 2.6 17.9-6.3 23.9-25.4 28.6-19.1 4.8-29.4-15.7-31-33.5-1-11.1-16.3-20.9-15.2-33.4 0.2-3.2-36-28.6-36.3-30.7-0.6-6.5 39 10.1 39 10.1 0 0 48.3-20.9 66.7-23.6 0 0 26.9-44.6 30-43.2 1.5 0.7-14 50.6-12 51.5 24.1 10.9 54 30.1 58 38.5 2.5 5.3-14.9 29.2-29.9 13.8z"/><path class="h" d="m666.7 232c29.3 11.2 61.7 16.1 77.8 21.5 26.9 8.9 65.3-48.7 69.4-67.8 4.1-19.2-10-57-20.9-66.5-23.6-20.5-59.7-37.8-59.7-37.8 11.4-30.6 18.2-74 18.2-74-1.3-4.4-4-1.2-4-1.2l-39.1 64.9c-18.4 2.6-56.1 18-65.6 22.8l-2.5-1.3c-22.5-13.1-91.3-20.2-91.3-20.2-5.5 0.7-5.5 5.3-3.9 10v0.1c0 0 31.8 58.3 61 117v-0.1c7 21.9 0.1 13.4 4.7 27.5"/><path class="n" d="m680.7 164.2c16-5.1 28.3-8.8 36.7-11.9 9.8-3.6 19.6 4.7 20 6.2 0 0-3.1 7.2-28 14.8-12.3 3.8-20.6 3-28.7-9.1z"/><path class="n" d="m775.6 111.2c-5.4 5.3-10 9.8-13.8 13.3-7.7 7-4.9 19.5-3.7 20.5 0 0 9-0.2 27.4-18.7q0.9-0.9 1.8-1.9 0.8-1 1.6-2.1 0.7-1.1 1.4-2.2 0.6-1.2 1.2-2.4c2.9-6.8-11.8-10.6-15.9-6.5z"/><path class="o" d="m795.8 193.2c-3.9 1.7-8.5 3.2-12.6 2.3-6-1.4-10.5-4.3-13.8-9.4"/><path class="o" d="m750.5 213.8q1.6 0.4 3.2 0.3 1.6 0 3.1-0.3 1.6-0.4 3-1 1.5-0.7 2.7-1.7 1.3-1 2.4-2.1 1.1-1.2 1.9-2.5 0.9-1.4 1.6-2.8 0.6-1.4 1-3c1.8-5.9 1.8-10.1-1-15.5"/><path  d="m749.2 185.2c-2.6-5.4 4-6.5 11.5-10.3 7.4-3.9 13.2-9.9 15.4-3.8 0.5 1.3 0.2 5.6-3.9 8.2q-0.2 0.2-0.3 0.4-0.2 0.2-0.2 0.5 0 0.3 0.1 0.5 0.1 0.3 0.3 0.5c1.1 1 1.7 2.9 2.6 4.6 1.8 3.6 0.8 7.8-2.4 9.5-3.2 1.6-7.2 0-9.1-3.6-0.9-1.8-2.1-3.2-2.2-4.7q0-0.2-0.1-0.3 0-0.2-0.2-0.3-0.2-0.1-0.3-0.1-0.2 0-0.4 0.1c-5.6 2.4-10.1 0.2-10.8-1.2z"/><path class="p" d="m633.3 120c4.7 15.6-14.5 59.8-28.2 63.9-5.3-13.8-13.4-18.2-20.8-30.2-8.5-13.9 2.7-31.6 16.4-35.7 13.7-4.1 19.8-2.5 32.6 2z"/><path class="d" d="m743 285.3c-88.1 6.2-162-43.8-166-48.6l19.6-22.9c0 0 43.9 41.8 152.3 44.3z"/><path class="q" d="m771.1 102.8c0 0 3.8-89.3-20.3-97.8l-24 76.6z"/><path class="q" d="m601.5 190.3q-0.2-0.6-0.5-1.1-0.2-0.5-0.5-1-0.3-0.5-0.6-1-0.2-0.5-0.6-1c-7.6-12.4-40.9-51.3-51.6-94.4l-3.5-13.2c0 0 17.9-9.3 45.9 4q6.3 3.1 12.4 6.7 6.2 3.5 12 7.5 5.8 4.1 11.2 8.6 5.5 4.5 10.6 9.4"/><path class="m" d="m596.1 235.3c0 0 55 37.3 133.8 37.9"/><path fill-rule="evenodd" class="m" d="m190 336.9"/><path fill-rule="evenodd" class="f" d="m169 355.7c0 0 38 2.5 54.3-27-11.8 31-1.5 38.8 11.2 46.5-29.7-6.5-39.5 9.8-43 28.5-1.2-21.2 7.7-33.2-22.5-48z"/><path fill-rule="evenodd" class="f" d="m196 462.8c0 0 22.2 1.5 31.8-15.8-6.9 18.2-0.9 22.7 6.6 27.2-17.5-3.8-23.2 5.7-25.2 16.7-0.8-12.4 4.5-19.5-13.2-28.1z"/><path fill-rule="evenodd" class="f" d="m757.2 428.6c0 0 18.6-12.2 15.8-31.8 5.5 18.7 13 18.7 21.7 17.8-16.2 7.5-15.1 18.5-10.1 28.5-8.1-9.5-8.1-18.3-27.4-14.5z"/><path fill-rule="evenodd" class="f" d="m133.1 571.1c0 0-13.1 2.6-15.8 14.1 1.1-11.6-3.1-13.2-8.1-14.7 10.6-0.5 12.4-6.9 11.8-13.5 2.4 7 0.5 11.9 12.1 14.1z"/><path fill-rule="evenodd" class="f" d="m54.5 457.2c0 0 17 1.5 22-27.5-5.6 14.9 7.8 26.8 14 30.5-14.3-3.1-19.8 28.3-21.5 37.3-0.6-10.2 5.8-39.3-14.5-40.3z"/><path fill-rule="evenodd" class="f" d="m216.5 549.5c0 0-9.7-1.4-13.5 15 3.7-8.3-7.4-15.2-10.8-17.6 8.1 2.3 14.5-8.1 15.8-13.2 0 5.9-3 14.5 8.5 15.8z"/></svg>