<svg version="1.2" xmlns="http://www.w3.org/2000/svg" viewBox="0 0 991 619.97" width="961.24" height="619.97"><defs><clipPath clipPathUnits="userSpaceOnUse" id="cp1"><path d="m733 297.18c-9.6 40.14-6.77 99-51.45 150.22-12.47 14.3-119.9-205.51-81.62-218.8 13.25-4.6 147-13.38 151.19-3.71z"/></clipPath></defs><style>.a{fill:#fff;stroke:#0e0e0e;stroke-linecap:round;stroke-linejoin:round;stroke-width:10}.b{fill:#fff;stroke:#0e0e0e;stroke-linecap:round;stroke-linejoin:round;stroke-width:8}.c{fill:#ff6c93;stroke:#000;stroke-linecap:round;stroke-linejoin:round;stroke-width:10}.d{fill:#fc8ba4;stroke:#000;stroke-linecap:round;stroke-linejoin:round;stroke-width:10}.e{fill:#fff}.f{fill:#f39d2f}.g{fill:none;stroke:#000;stroke-linecap:round;stroke-linejoin:round;stroke-width:10}.h{fill:#3b57ff;stroke:#0e0e0e;stroke-linecap:round;stroke-linejoin:round;stroke-width:10}.i{fill:none;stroke:#0e0e0e;stroke-linecap:round;stroke-linejoin:round;stroke-width:10}.j{stroke:#0e0e0e;stroke-miterlimit:10;stroke-width:3}.k{fill:none;stroke:#000;stroke-linecap:round;stroke-linejoin:round;stroke-width:8}.l{fill:#efcdc2}.m{fill:#efcdc2;stroke:#000;stroke-linecap:round;stroke-linejoin:round;stroke-width:10}.n{fill:none;stroke:#0e0e0e;stroke-linecap:round;stroke-linejoin:round;stroke-width:8}.o{fill:none;stroke:#000;stroke-linecap:round;stroke-miterlimit:10;stroke-width:8}.p{fill:#fc8ba4;stroke:#000;stroke-linecap:round;stroke-linejoin:round;stroke-width:6}.q{fill:none;stroke:#ffccdc;stroke-linecap:round;stroke-linejoin:round;stroke-width:4.4}.r{fill:#f2d751}</style><path class="a" d="m719.9 335.1c0 0 160.2-85.2 196.5-89.6 25.7-3.1 19.7-0.9 38.1-4.3 18-3.3 54.7-45.4 11.5-60.2-21.7-7.5-38.1 8.3-45.4 20-7.2 11.7-186 54.3-186 54.3"/><path class="b" d="m986.2 201.7c0 0-17.1 0-28.3 8.4"/><path class="b" d="m972 183.5c0 0-20.7 4.9-27.4 12.1"/><path class="c" d="m35 320.8c0 0 57-74.1 148.1 2.4 79.5 66.8-12.8-82.6-12.8-82.6 0 0-29.4-2.2-63.3 11.3-7.9 3.1-15.5 7-22.7 11.6-7.2 4.6-13.9 9.9-20 15.8-6.2 5.9-11.8 12.4-16.7 19.3-4.9 7-9.1 14.4-12.6 22.2z"/><path class="d" d="m149.2 284.5c46.5 128.6 162.4 202.1 290.8 195.9 128.4-6.2 343.8-214 297.4-243.3-117.3-74-144.8 3.9-372.5 25.8-157.4 15.2-155.2-46.8-258-11 0.1 0 30.4-0.1 42.3 32.6z"/><path class="a" d="m389.7 435.9l-49.6 82.5c0 0-4.3 2.4-17.4 10.3-7.6 4.5-26.9 10-36.7 25.4-9.8 15.4-39.1 53.4-23.3 59.6 15.8 6.3 28.1-11.8 66.2-37.6 38-25.8 150.7-75.3 197.4-139.6 46.6-64.2-123.5-24.8-136.6-0.6z"/><path class="e" d="m464.3 465.8c-55.8 1.5-102.2-29.1-143-73.1-40.8-43.9-46.1-170.9-46.1-170.9-7.8-62.3-39.6-78.7-52.6-81.8-13.1-3.1-19.8 2.4-30 0.4-10.2-2-20.5-9.1-21.7-19.4-1.4-11.9 7.4-21.8 17.6-26.5 10.3-4.8 23.2-7.1 34.1-5.2 63.7 8.3 81.4 65.2 81.4 65.2 7.1 16.1 32.7 163.4 32.7 163.4 13.1 47.6 35 58.3 52.1 58.6"/><path class="f" d="m254.3 163.1z"/><path class="f" d="m275.5 228.7z"/><path class="f" d="m240.5 145.7c4.9-12.9 8.1-41.1 8-47.7 7.3 3.1 15.2 7.2 21.4 12.2l-14.7 48.7c-4.1-5-14.7-13.2-14.7-13.2z"/><path class="f" d="m261.2 169.2c5.4-13.3 18.9-41.3 22.2-48.5 0.4 0.4 31.3 35.7 22.1 52.4l-36.7 12q-0.8-2.1-1.6-4.1-0.9-2-1.8-4-1-2-2-4-1.1-1.9-2.2-3.8z"/><path class="f" d="m275.5 212.6c8.8-7.5 27.5-17 34.2-21 2.3 11.3 5.2 25.5 7.8 39l-39.7-1.1c-0.3-4.4-1.8-13.9-2.3-16.9z"/><path class="f" d="m322.7 247.3c2.6 13.7 3.7 28.6 5.9 40.8l-44.4-1c-0.9-5.3-0.8-10.2-1.5-15.1 10.6-8.9 34.4-21.4 40-24.8z"/><path class="f" d="m392.8 378.6c-46.8 13.2-58.4-73.1-58.4-73.1l-47.4 15.2c0 0 8.9 36 33.5 68.8 28.9 38.5 73.5 55.7 73.5 55.7 0 0 28-6.8 41-29z"/><path class="g" d="m464.3 465.8c-55.8 1.5-102.2-29.1-143-73.1-40.8-43.9-46.1-170.9-46.1-170.9-7.8-62.3-39.6-78.7-52.6-81.8-13.1-3.1-19.8 2.4-30 0.4-10.2-2-20.5-9.1-21.7-19.4-1.4-11.9 7.4-21.8 17.6-26.5 10.3-4.8 23.2-7.1 34.1-5.2 63.7 8.3 81.4 65.2 81.4 65.2 7.1 16.1 32.7 163.4 32.7 163.4 13.1 47.6 35 58.3 52.1 58.6"/><path class="h" d="m356.4 491.2l-16.3 27.2c0 0-4.3 2.4-17.4 10.3-7.6 4.5-26.9 10-36.7 25.4-9.8 15.4-39.1 53.4-23.3 59.6 15.8 6.3 28.1-11.8 66.2-37.6 14-9.5 38.2-22.3 65.5-37.8 46.7-26.6-38-47.1-38-47.1z"/><path class="e" d="m739 293.2c-12.2 51.3-9 134.2-102.7 197-52.4 35.1-197 50.4-197 50.4 0 0-85.3-136.4-18.8-190 90.5-72.7 154.5-103.6 192.8-116.9q3.7-1.3 7.5-2.5 3.8-1.2 7.6-2.3 3.8-1 7.7-1.9 3.8-1 7.7-1.8c27.6-5.5 36.2-7.7 66.7-3.2 21 3.1 41-4.5 45.2 5.2"/><path class="f" d="m651.3 278.2c12.2 32.4 18 60.3-17.2 40.7-35.2-19.6-89.8-36.1-75 15.6 14.8 51.7 4.3 112.4-28.3 74.5-32.6-38-74.4-44.8-80.4-12-5.9 32.8-42.9 65.4-45.5 15.8-2.7-49.6 63.4-126.7 220.3-184.5 156.8-57.8 16.3 24 26.1 49.9z"/><path class="i" d="m737.5 299.4c-12.2 51.4-4.2 133.3-101.2 190.8-78.8 46.7-197 50.4-197 50.4 0 0-85.3-136.4-18.8-190 90.5-72.7 145.7-106.4 184-119.7 13.2-4.6 32.2-4.3 39.3-5.7 27.6-5.5 36.2-7.7 66.7-3.2 21 3.1 41-4.5 45.2 5.2"/><path class="e" d="m426.6 348.6c0 0-129.4 62.2-18.7 149.7l68.6-9.8c0 0-64.8-34.3-73.3-66.4-8.6-32.2 23.4-73.5 23.4-73.5z"/><path class="a" d="m407.9 498.3c-3.8 2-16.1 4.5-21.1 3.9-39.6-4.5-114.7-34.8-62.1 5.1 52.5 39.8 101.4 47.6 146.7 44.8 45.3-2.9 49.6-17.8 45.4-46.1-7.9-54.6-32.4-78.1-32.4-78.1"/><path class="e" d="m669 246.5c29.3 11.2 56.5-3.1 72.7 2.2 26.9 8.9 36.1-11.6 43.3-15.4 0 0 10.7-5.2 15.6-16 5-10.9 13.3-31.6 13.3-31.6 3.2-31.9-20.9-66.5-20.9-66.5l-59.7-37.8c11.4-30.6 18.2-74 18.2-74-1.3-4.4-4-1.2-4-1.2l-39.1 64.9c-18.4 2.6-56.1 18-65.6 22.8l-2.5-1.3c-22.5-13.1-91.3-20.2-91.3-20.2-5.5 0.7-5.5 5.3-3.9 10v0.1c0 0 31.8 58.3 61 117v-0.1c7 21.9 4.7 27.5 9.3 41.6 0 0 24.3-5.7 53.6 5.5z"/><path class="f" d="m754.8 133.9c-15.8-16.3-29.5-17.2-34.3-20.4-5.6-3.8-20-4.7-25.6-0.9-5.4 3.6 4.1 7.6 5.7 14 1.6 6.3 7.7 11.3 10.3 29.2 2.6 17.9-6.3 23.9-25.4 28.6-19.1 4.8-29.4-15.7-31-33.5-1-11.1-16.3-20.9-15.2-33.4 0.2-3.2-36-28.6-36.3-30.7-0.6-6.5 39 10.1 39 10.1 0 0 48.3-20.9 66.7-23.6 0 0 26.9-44.6 30-43.2 1.5 0.7-14 50.6-12 51.5 24.1 10.9 54 30.1 58 38.5 2.5 5.3-14.9 29.2-29.9 13.8z"/><path class="g" d="m666.7 232c29.3 11.2 61.7 16.1 77.8 21.5 26.9 8.9 65.3-48.7 69.4-67.8 4.1-19.2-10-57-20.9-66.5-23.6-20.5-59.7-37.8-59.7-37.8 11.4-30.6 18.2-74 18.2-74-1.3-4.4-4-1.2-4-1.2l-39.1 64.9c-18.4 2.6-56.1 18-65.6 22.8l-2.5-1.3c-22.5-13.1-91.3-20.2-91.3-20.2-5.5 0.7-5.5 5.3-3.9 10v0.1c0 0 31.8 58.3 61 117v-0.1c7 21.9 0.1 13.4 4.7 27.5"/><path class="j" d="m680.7 164.2c16-5.1 28.3-8.8 36.7-11.9 9.8-3.6 19.6 4.7 20 6.2 0 0-3.1 7.2-28 14.8-12.3 3.8-20.6 3-28.7-9.1z"/><path class="j" d="m775.6 111.2c-5.4 5.3-10 9.8-13.8 13.3-7.7 7-4.9 19.5-3.7 20.5 0 0 9-0.2 27.4-18.7q0.9-0.9 1.8-1.9 0.8-1 1.6-2.1 0.7-1.1 1.4-2.2 0.6-1.2 1.2-2.4c2.9-6.8-11.8-10.6-15.9-6.5z"/><path class="k" d="m795.8 193.2c-3.9 1.7-8.5 3.2-12.6 2.3-6-1.4-10.5-4.3-13.8-9.4"/><path class="k" d="m750.5 213.8q1.6 0.4 3.2 0.3 1.6 0 3.1-0.3 1.6-0.4 3-1 1.5-0.7 2.7-1.7 1.3-1 2.4-2.1 1.1-1.2 1.9-2.5 0.9-1.4 1.6-2.8 0.6-1.4 1-3c1.8-5.9 1.8-10.1-1-15.5"/><path  d="m749.2 185.2c-2.6-5.4 4-6.5 11.5-10.3 7.4-3.9 13.2-9.9 15.4-3.8 0.5 1.3 0.2 5.6-3.9 8.2q-0.2 0.2-0.3 0.4-0.2 0.2-0.2 0.5 0 0.3 0.1 0.5 0.1 0.3 0.3 0.5c1.1 1 1.7 2.9 2.6 4.6 1.8 3.6 0.8 7.8-2.4 9.5-3.2 1.6-7.2 0-9.1-3.6-0.9-1.8-2.1-3.2-2.2-4.7q0-0.2-0.1-0.3 0-0.2-0.2-0.3-0.2-0.1-0.3-0.1-0.2 0-0.4 0.1c-5.6 2.4-10.1 0.2-10.8-1.2z"/><path class="l" d="m633.3 120c4.7 15.6-14.5 59.8-28.2 63.9-5.3-13.8-13.4-18.2-20.8-30.2-8.5-13.9 2.7-31.6 16.4-35.7 13.7-4.1 19.8-2.5 32.6 2z"/><path class="d" d="m743 285.3c-88.1 6.2-162-43.8-166-48.6l19.6-22.9c0 0 43.9 41.8 152.3 44.3z"/><path class="i" d="m421.9 349.7c0 0-7.1 5.9-12.2 9.6-23.9 17.6-86.5 65.8-1.8 139"/><path class="h" d="m394.8 548.8c-25.8-5.3-52.8-15.4-78.8-35.8-37.6-29.4-51.5-39.8-38.7-47.5 7.1-4.2 15.2-3.2 35.7 0.3 22.1 3.9 37.1 1.8 41.3 18.9 3.2 13 53.6 13.6 53.6 13.6 0 0-2.2 29.5 15.9 55.1 3.4 4.9-22.5-3.2-29-4.6z"/><path class="m" d="m771.1 102.8c0 0 3.8-89.3-20.3-97.8l-24 76.6z"/><path class="m" d="m601.5 190.3q-0.2-0.6-0.5-1.1-0.2-0.5-0.5-1-0.3-0.5-0.6-1-0.2-0.5-0.6-1c-7.6-12.4-40.9-51.3-51.6-94.4l-3.5-13.2c0 0 17.9-9.3 45.9 4q6.3 3.1 12.4 6.7 6.2 3.5 12 7.5 5.8 4.1 11.2 8.6 5.5 4.5 10.6 9.4"/><path class="e" d="m582 324.1c-21.7-2.2-167.4 14.1-198 20-54.3 10.6-63.6-32.3-48.6-46.3 17-15.9 31.6-20.6 52.1-3.7 14.2 11.7 46.9-1.2 88.9-11.4 16.5-4 28.1-6.6 39.7-8.8 56.4-11 65.9 50.2 65.9 50.2z"/><path class="i" d="m578.4 269.4c0 0-5.4-10.1-101.9 13.4-42 10.2-74.2 22.4-88.9 11.3-18.3-13.8-32.9-17-52.2 3.7-14 15-5.7 57 48.6 46.4 30.7-6 176.3-22.2 198-20"/><path class="n" d="m355 323.2c-2.4 2.7-17.7 2-24.3 0"/><path class="o" d="m356.1 306.6c0 0-13.5-0.8-20.7-8.8"/><g clip-path="url(#cp1)"><path class="p" d="m719.2 309.1c-23.8-6.1-51.6 6.7-60.3 31.2-9.9 27.8 10.8 54.4 36.4 61 25.6 6.6 56.5-6.6 61.4-35.7 4.3-25.6-13.7-50.3-37.5-56.5zm23.2 54c-1.7 6.6-4.4 11.1-9.1 16.6-6.3-8.6-12.3-17.4-18.1-26.3 2.4-9.5 4.7-19.1 7-28.6 13.9 6.6 23.8 23.4 20.2 38.3zm-50.9 22.2q-1.7-0.8-3.2-1.7-1.6-1-3.1-2.1-1.5-1.1-2.8-2.3-1.4-1.3-2.6-2.6c5.5-2.7 10.9-5.3 16.3-8.1-1.5 5.6-3.1 11.2-4.6 16.8zm19.1-13c3.4 5 6.8 10 10.3 15q-1.7 0.6-3.5 1-1.8 0.4-3.6 0.7-1.9 0.2-3.7 0.3-1.8 0.1-3.7 0c1.4-5.7 2.8-11.4 4.2-17zm-1.7-51c-2.5 9.5-5.1 19-7.7 28.4-9.4 5.1-18.9 9.8-28.5 14.2-1.5-7-1.7-12.3 0.1-18.9 4-14.7 20.8-24.6 36.1-23.7z"/><path class="q" d="m735.7 326.3c10 7.7 15.8 20.9 13.5 33.8"/><path class="q" d="m676.8 382.5c-10.2-8.4-15.5-22.5-11-35.7"/></g><path class="q" d="m596.1 235.3c0 0 55 37.3 133.8 37.9"/><path fill-rule="evenodd" class="q" d="m190 336.9"/><path fill-rule="evenodd" class="e" d="m8 377.3c0 0 14.1 0.9 20.1-10-4.4 11.5-0.6 14.4 4.1 17.2-11-2.4-14.6 3.6-15.9 10.6-0.4-7.9 2.9-12.3-8.3-17.8z"/><path fill-rule="evenodd" class="e" d="m8 377.3c0 0 14.1 0.9 20.1-10-4.4 11.5-0.6 14.4 4.1 17.2-11-2.4-14.6 3.6-15.9 10.6-0.4-7.9 2.9-12.3-8.3-17.8z"/><path fill-rule="evenodd" class="e" d="m8 377.3c0 0 14.1 0.9 20.1-10-4.4 11.5-0.6 14.4 4.1 17.2-11-2.4-14.6 3.6-15.9 10.6-0.4-7.9 2.9-12.3-8.3-17.8z"/><path fill-rule="evenodd" class="e" d="m143 422.3c0 0 14.1 0.9 20.1-10-4.4 11.5-0.6 14.4 4.1 17.2-11-2.4-14.6 3.6-15.9 10.6-0.4-7.9 2.9-12.3-8.3-17.8z"/><path fill-rule="evenodd" class="e" d="m143 422.3c0 0 14.1 0.9 20.1-10-4.4 11.5-0.6 14.4 4.1 17.2-11-2.4-14.6 3.6-15.9 10.6-0.4-7.9 2.9-12.3-8.3-17.8z"/><path fill-rule="evenodd" class="e" d="m835 338.3c0 0 14.1 0.9 20.1-10-4.4 11.5-0.6 14.4 4.1 17.2-11-2.4-14.6 3.6-15.9 10.6-0.4-7.9 2.9-12.3-8.3-17.8z"/><path fill-rule="evenodd" class="r" d="m189 406.2c0 0 31.4 2.1 44.9-22.3-9.8 25.6-1.3 32 9.3 38.4-24.6-5.3-32.7 8.1-35.6 23.6-1-17.6 6.4-27.5-18.6-39.7z"/><path fill-rule="evenodd" class="r" d="m32.5 508.7c0 0 12.3 1 15.9-19.9-4.1 10.7 5.7 19.3 10.1 22-10.3-2.2-14.3 20.5-15.5 27-0.4-7.4 4.2-28.4-10.5-29.1z"/></svg>