<svg id="Layer_1" data-name="Layer 1" xmlns="http://www.w3.org/2000/svg" viewBox="0 0 592.22 1025.84"><defs><style>.cls-1{fill:#1e1e1e;}.cls-2,.cls-5{fill:#fc8ba4;}.cls-3,.cls-4{fill:#5072ff;}.cls-4,.cls-5{stroke:#000;stroke-linejoin:round;stroke-width:10px;}.cls-5{stroke-linecap:round;}</style></defs><title>roof</title><rect class="cls-1" width="592.22" height="35.07"/><polyline class="cls-2" points="0 117.13 592.22 117.13 592.05 876.98 0 876.98"/><polyline class="cls-3" points="0 876.98 592.22 876.98 592.22 1020.84 0 1020.84"/><line class="cls-4" y1="876.98" x2="592.22" y2="876.98"/><line class="cls-4" y1="1020.84" x2="592.22" y2="1020.84"/><path class="cls-5" d="M85.69,119.7H288.6l1.7-97L95.8,5c-.76-.13-1.43,1.1-1.57,2.84L84.79,117.13C84.69,118.49,85.1,119.66,85.69,119.7Z"/><path class="cls-5" d="M283.09,119.7H486l1.7-97L293.2,5c-.76-.13-1.43,1.1-1.57,2.84l-9.44,109.28C282.09,118.49,282.5,119.66,283.09,119.7Z"/><polygon class="cls-2" points="484.83 114.7 592.22 114.7 592.22 19.26 493.85 10.32 484.83 114.7"/><path d="M484.83,114.7l9-104.38,98.37,8.94v-10L491.17,0A5.71,5.71,0,0,0,487,1.24a8.48,8.48,0,0,0-2.9,6.18l-9.44,109.33a8.22,8.22,0,0,0,1.68,6,5.63,5.63,0,0,0,3.83,2H592.22v-10Z"/><polygon class="cls-2" points="86.28 114.7 87.81 27.23 0 19.26 0 114.7 86.28 114.7"/><path d="M96.19,119.79l1.7-97a5,5,0,0,0-4.54-5.07L0,9.21V19.26l87.81,8L86.28,114.7H0v10H91.19A5,5,0,0,0,96.19,119.79Z"/></svg>