<svg id="Layer_1" data-name="Layer 1" xmlns="http://www.w3.org/2000/svg" viewBox="0 0 2996.71 2375.83"><defs><style>.cls-1{fill:#1e1e1e;}.cls-19,.cls-2{fill:#fff;}.cls-3{fill:#5072ff;}.cls-11,.cls-15,.cls-16,.cls-17,.cls-18,.cls-19,.cls-21,.cls-22,.cls-23,.cls-24,.cls-26,.cls-28,.cls-29,.cls-3,.cls-31,.cls-34,.cls-36,.cls-4,.cls-41,.cls-42,.cls-43,.cls-44,.cls-46,.cls-48,.cls-49,.cls-5,.cls-50,.cls-6,.cls-8,.cls-9{stroke:#000;}.cls-11,.cls-15,.cls-17,.cls-18,.cls-19,.cls-21,.cls-22,.cls-23,.cls-24,.cls-29,.cls-3,.cls-31,.cls-4,.cls-41,.cls-42,.cls-43,.cls-46,.cls-48,.cls-49,.cls-5,.cls-50,.cls-6,.cls-8,.cls-9{stroke-linecap:round;}.cls-11,.cls-15,.cls-16,.cls-17,.cls-18,.cls-19,.cls-21,.cls-22,.cls-29,.cls-3,.cls-31,.cls-4,.cls-41,.cls-42,.cls-43,.cls-46,.cls-48,.cls-49,.cls-5,.cls-50,.cls-6,.cls-8,.cls-9{stroke-linejoin:round;}.cls-11,.cls-15,.cls-16,.cls-17,.cls-18,.cls-19,.cls-21,.cls-23,.cls-24,.cls-3,.cls-34,.cls-36,.cls-4,.cls-41,.cls-42,.cls-43,.cls-46,.cls-48,.cls-49,.cls-5,.cls-50,.cls-6,.cls-8,.cls-9{stroke-width:10px;}.cls-4{fill:#ccc;}.cls-5{fill:#004cff;}.cls-6{fill:#45a2ff;}.cls-42,.cls-48,.cls-7{fill:#1a1a1a;}.cls-8{fill:#fff8ef;}.cls-9{fill:#2488ff;}.cls-10,.cls-43{fill:#fc8ba4;}.cls-11{fill:#697584;}.cls-12{fill:#e52c3e;}.cls-13,.cls-28{fill:#f2d751;}.cls-14{fill:#31dd4e;}.cls-15{fill:#c49257;}.cls-16,.cls-17,.cls-22,.cls-23,.cls-31,.cls-34{fill:none;}.cls-18{fill:#b3b3b3;}.cls-20{fill:#f39d2f;}.cls-21,.cls-25{fill:#efcdc2;}.cls-22,.cls-44{stroke-width:8px;}.cls-23,.cls-24,.cls-26,.cls-28,.cls-34,.cls-36,.cls-44{stroke-miterlimit:10;}.cls-24{fill:#3b57ff;}.cls-26{fill:#c4a316;}.cls-26,.cls-28{stroke-width:9px;}.cls-27{fill:#ed9096;}.cls-29{fill:#555c6d;stroke-width:5px;}.cls-30{fill:#7a7a91;}.cls-31{stroke-width:4px;}.cls-32{fill:#d30d54;}.cls-33,.cls-36{fill:#8c8472;}.cls-35{fill:#eadcba;}.cls-37{fill:#b7b2a7;}.cls-38{fill:#ffa57d;}.cls-39{fill:#e2b881;}.cls-40{fill:#ffdeb6;}.cls-44{fill:#67658e;}.cls-45{fill:#efe7df;}.cls-46{fill:#333;}.cls-47{fill:#5b6a77;}.cls-48,.cls-49{fill-rule:evenodd;}.cls-49,.cls-50{fill:#ff6c93;}</style></defs><title>window</title><rect class="cls-1" x="52.51" y="5" width="2136.25" height="1435.88"/><circle class="cls-2" cx="1432.3" cy="367.64" r="8.46"/><circle class="cls-2" cx="2170.33" cy="133.54" r="6.58"/><circle class="cls-2" cx="1353.8" cy="591.87" r="6.58"/><circle class="cls-2" cx="2185.84" cy="329.1" r="6.58"/><circle class="cls-2" cx="1707.3" cy="993.32" r="6.58"/><circle class="cls-2" cx="1648.54" cy="907.77" r="9.87"/><circle class="cls-2" cx="2139.3" cy="276.45" r="9.87"/><circle class="cls-2" cx="1588.37" cy="1006.49" r="6.58"/><circle class="cls-2" cx="193.6" cy="197" r="7.52"/><circle class="cls-2" cx="468.13" cy="1184.18" r="4.7"/><circle class="cls-2" cx="633.13" cy="1064.31" r="4.7"/><circle class="cls-2" cx="401.38" cy="273.63" r="4.7"/><circle class="cls-2" cx="360.95" cy="337.09" r="4.7"/><circle class="cls-2" cx="392.45" cy="1064.31" r="4.7"/><circle class="cls-2" cx="387.75" cy="1188.41" r="4.7"/><circle class="cls-2" cx="408.9" cy="1226.95" r="4.7"/><circle class="cls-2" cx="463.43" cy="1125.42" r="4.7"/><circle class="cls-2" cx="663.69" cy="955.25" r="9.87"/><circle class="cls-2" cx="560.74" cy="109.57" r="10.81"/><circle class="cls-2" cx="785.91" cy="413.24" r="9.4"/><circle class="cls-2" cx="1012.96" cy="876.27" r="6.58"/><circle class="cls-2" cx="893.56" cy="1147.98" r="6.58"/><path class="cls-3" d="M52.51,5V1366.8H2191.66V5ZM1085.6,1337.09H125.05V522.25H1085.6Zm0-871.92H125.05v-406H1085.6Zm1033.51,871.92H1158.56V522.25h960.55Zm0-871.92H1158.56v-406h960.55Z"/><rect class="cls-3" x="5" y="1394.69" width="2240.1" height="82.84"/><rect class="cls-3" x="52.51" y="1366.8" width="2139.15" height="27.88"/><path class="cls-4" d="M1263.84,1183H2355.13a0,0,0,0,1,0,0v101.64a8.62,8.62,0,0,1-8.62,8.62h-1074a8.62,8.62,0,0,1-8.62-8.62V1183A0,0,0,0,1,1263.84,1183Z"/><rect class="cls-4" x="1699.67" y="1293.22" width="223.96" height="96.48"/><path class="cls-5" d="M1271.81,547H2347.16a8,8,0,0,1,8,8v629.75a0,0,0,0,1,0,0H1263.84a0,0,0,0,1,0,0V555A8,8,0,0,1,1271.81,547Z"/><rect class="cls-6" x="1308.17" y="592.9" width="1009.44" height="552.47"/><path class="cls-7" d="M1827.81,1215.44c19.47,26.18-9.85,55.5-36,36a2.94,2.94,0,0,1-.61-.61c-19.5-26.18,9.85-55.52,36-36A2.94,2.94,0,0,1,1827.81,1215.44Z"/><path class="cls-4" d="M2019.45,1422H1599.79a32.3,32.3,0,0,1,32.29-32.3h355.07a32.3,32.3,0,0,1,32.3,32.3Z"/><rect class="cls-8" x="1579.16" y="654.92" width="440.28" height="421.93" rx="2.51"/><rect class="cls-9" x="1658.59" y="726.73" width="288.15" height="288.15"/><path class="cls-10" d="M1792.38,995.09a13.88,13.88,0,0,1-13.86-13.86V888h-31.66a13.87,13.87,0,1,1,0-27.73h10.94c-1-1.42-2-2.89-2.88-4.43a93.22,93.22,0,0,1-12.68-46.63c0-16.7,4.93-30.93,14.26-41.18a49.33,49.33,0,0,1,71.77,0c9.32,10.25,14.25,24.48,14.25,41.18a93.11,93.11,0,0,1-12.68,46.63c-.92,1.54-1.88,3-2.87,4.43h10.94a13.87,13.87,0,1,1,0,27.73h-31.66v93.2A13.88,13.88,0,0,1,1792.38,995.09Zm0-215.85a21.18,21.18,0,0,0-16.17,6.77c-4.78,5.25-7.31,13.28-7.31,23.23,0,23.25,13.23,45.14,23.48,45.14s23.48-21.89,23.48-45.14c0-10-2.52-18-7.31-23.23A21.17,21.17,0,0,0,1792.38,779.24Z"/><path d="M1792.38,757.58a42.86,42.86,0,0,1,32.19,13.85c8.47,9.3,13,22.38,13,37.81a88.06,88.06,0,0,1-12,44.06,60.6,60.6,0,0,1-9.29,12h21.64a8.87,8.87,0,1,1,0,17.73h-36.66v98.2a8.87,8.87,0,0,1-17.73,0V883h-36.66a8.87,8.87,0,1,1,0-17.73h21.64a60.6,60.6,0,0,1-9.29-12,88.07,88.07,0,0,1-12-44.06c0-15.43,4.48-28.51,13-37.81a42.84,42.84,0,0,1,32.18-13.85m0,101.8c14.11,0,28.48-25.31,28.48-50.14,0-11.21-3-20.41-8.61-26.6-5-5.49-11.87-8.4-19.87-8.4s-14.86,2.91-19.86,8.4c-5.64,6.19-8.62,15.39-8.62,26.6,0,24.83,14.38,50.14,28.48,50.14m0-111.8a52.74,52.74,0,0,0-39.58,17.12c-10.18,11.18-15.56,26.58-15.56,44.54a98.94,98.94,0,0,0,11.6,46.06h-2a18.87,18.87,0,1,0,0,37.73h26.66v88.2a18.87,18.87,0,0,0,37.73,0V893h26.66a18.87,18.87,0,1,0,0-37.73h-2a99.05,99.05,0,0,0,11.59-46.06c0-18-5.38-33.36-15.55-44.54a52.77,52.77,0,0,0-39.59-17.12Zm0,101.8c-1.91,0-6.37-2.85-10.83-10.7a62.21,62.21,0,0,1-7.65-29.44c0-8.68,2.08-15.55,6-19.86,3.1-3.41,7.3-5.14,12.47-5.14s9.38,1.73,12.48,5.13c3.93,4.32,6,11.19,6,19.87a62.2,62.2,0,0,1-7.64,29.44c-4.46,7.85-8.92,10.7-10.84,10.7Z"/><rect class="cls-11" x="1579.16" y="654.92" width="440.28" height="31.23" rx="2.51"/><circle class="cls-12" cx="1597.95" cy="670.37" r="6.71"/><circle class="cls-13" cx="1621.95" cy="670.37" r="6.71"/><circle class="cls-14" cx="1645.95" cy="670.37" r="6.71"/><polygon class="cls-15" points="1031.24 1509.58 1031.24 1706.38 1055.35 2345.83 1101.21 2345.83 1125.31 1706.38 1125.31 1509.58 1031.24 1509.58"/><rect class="cls-15" x="772.29" y="1421.94" width="2153.73" height="87.63"/><polygon class="cls-15" points="2667.07 1509.58 2667.07 1706.38 2642.97 2345.83 2597.11 2345.83 2573 1706.38 2573 1509.58 2667.07 1509.58"/><path class="cls-15" d="M772.29,2016.11v1.13c33.62,27.26,157.31,47.48,304.79,47.48,149.5,0,274.56-20.78,306.12-48.61Z"/><rect class="cls-15" x="772.29" y="1575.81" width="611.98" height="440.3"/><path class="cls-16" d="M1344.26,1976.11h-532v-360.3h532Z"/><line class="cls-17" x1="812.29" y1="1795.96" x2="1344.26" y2="1795.96"/><rect class="cls-15" x="887.14" y="1656.97" width="382.28" height="38.32" rx="14.17"/><rect class="cls-15" x="887.14" y="1837.12" width="382.28" height="38.32" rx="14.17"/><path class="cls-15" d="M2314.05,2016.11v1.13c33.62,27.26,157.31,47.48,304.79,47.48,149.5,0,274.56-20.78,306.12-48.61Z"/><rect class="cls-15" x="2314.05" y="1575.81" width="611.98" height="440.3"/><path class="cls-16" d="M2886,1976.11h-532v-360.3h532Z"/><line class="cls-17" x1="2354.05" y1="1795.96" x2="2886.02" y2="1795.96"/><rect class="cls-15" x="2428.89" y="1656.97" width="382.28" height="38.32" rx="14.17"/><rect class="cls-15" x="2428.89" y="1837.12" width="382.28" height="38.32" rx="14.17"/><rect class="cls-18" x="1263.84" y="1385.62" width="457.07" height="37.42"/><g id="Phung"><path class="cls-19" d="M2721.41,1374.77s-40.19,7.21-38.29,39.19c0,0,6.21,8.59,38.77,3.33,0,0,40-12.4,55.75-5.67,0,0,44.38-.67,46.74-14.84l-2.86-21s-96.8-8.57-98.69-2.9"/><path class="cls-19" d="M2793.54,1382.77s-40.2,7.21-38.29,39.19c0,0,6.2,8.59,38.76,3.33,0,0,40-12.4,55.76-5.67,0,0,44.38-.67,46.74-14.84l-2.87-21s-96.79-8.57-98.68-2.9"/><path class="cls-19" d="M2884.58,1394.28s21.17.35,31.26-39.85c39.11-30,54-77,57.53-129.84s-63.63-143-63.63-143c-29.36-47.19-16.72-76.17-9.47-85.56s14.92-9.32,20.79-16.39,8.94-17.66,4-25.42c-5.67-9-17.21-10.83-26.79-8.41-9.78,2.47-19.95,8.08-26.31,15.46-39.15,41.23-19.57,90.09-19.57,90.09,4.13,15,68.67,130.4,68.67,130.4,17.49,40,8.4,59.59-3.12,69.27-2.1-4.54-83.75-161.81-170.89-162.56.33-12.3-2.87-16.22-2.48-35.28l.06.12c9.22-53.61,20.68-107.37,20.68-107.37l-.06-.11c.14-4.07-.9-7.8-5.45-7,0,0-53,21.95-67.77,37.7l-1.61,1.61c-8.71-1.58-42.33-4.85-57.53-2.56l-46.42-42.24s-2.86-1.91-2.86,1.91c0,0,15.65,32.84,31.94,54.43l-38.44,44.14s-10.92,33.14-.82,57.72l18.27,25.55h0c5.62,7.94,12.72,15.15,14.75,24.58a38.34,38.34,0,0,1,.73,7.64c-3.78,19-6.24,50.25,7.19,82.39,1.32,17,6.9,96-1,128-.26.14-5.45,27.79-5.45,27.79s-47.51,8.7-19.41,27.64,43,10.63,56.74-15.83c0,0,6.27-17.9,7.9-27.91s1.53-18.55,9.19-37.9c0,0,15.81,27.41,32.32,39.36-1.74,8.56,2.24,7.75-14.92,28.34-36.85,17.73-13.34,31.82,11,34.31,22.23,2.27,42.15.9,34.5-23.19,5.39-5,16.41-29.26,16.41-29.26s43.28,2.83,53.86,2.83a50.9,50.9,0,0,0,6.65-.2"/><path class="cls-20" d="M2611,1036.39c8.68-16.67,19.36-20.61,22.37-24.31,3.53-4.33,14.82-8.45,20.16-6.81,5.15,1.58-1.44,7.06-1.21,12.44s-3.49,10.83-1.29,25.67,10.66,17.47,26.93,16.71,19.66-19.44,16.67-34c-1.87-9.08,8-20.49,4.19-30.15-1-2.48,21.85-31.21,21.5-33-1-5.26-28.24,20-28.24,20s-45.59-5.44-60.8-3.15c0,0-22.83-23.87-25-22-1,.89,19.34,26.9,17.95,28.1-16.54,14.37-36.62,43-37.77,50.6C2585.73,1041.26,2602.75,1052.21,2611,1036.39Z"/><path class="cls-21" d="M2591.57,1016.79s-25.12-71.17-7.94-83.7l37.22,55.12Z"/><path class="cls-17" d="M2593.77,1116.18c1.56,3.62,6.88,9.86,13.51,11.23s19.5,7,38.76-6.46c11.55-8,51.89-16.9,58.12-27.49"/><path class="cls-21" d="M2746.06,1044.86a23.67,23.67,0,0,1,.74-3.79c3.17-11.59,20.35-50.37,18.6-87.18l-.39-10.42s-34.42,11.76-35.38,13.19-29.1,36.47-29.1,36.47"/><path d="M2677,1042.92c-13.85-.28-24.52-.3-32-.76-8.56-.53-14.41,8.36-14.38,9.68,0,0,4.17,4.93,25.74,5.13C2667,1057.07,2673.41,1054.43,2677,1042.92Z"/><path d="M2588.93,1022.89c5.59,3,10.28,5.47,14.12,7.3,7.73,3.71,8.51,14.32,7.84,15.46,0,0-7.25,2-26.19-8.37a22.72,22.72,0,0,1-6.83-5.4C2574,1027.16,2584.73,1020.63,2588.93,1022.89Z"/><path class="cls-22" d="M2592.45,1093.17c3.48.45,7.54.58,10.58-1.15a17.45,17.45,0,0,0,8.74-10.7"/><path class="cls-22" d="M2633.28,1098.87a12.15,12.15,0,0,1-10.16.68,16.4,16.4,0,0,1-7.94-6.61c-2.76-4.26-3.79-7.6-2.82-12.59"/><path d="M2627.56,1075.86c.82-5-4.68-4.25-11.54-5.53s-12.89-4.66-13.17.65c-.07,1.12,1.15,4.54,5,5.64a1,1,0,0,1,.59,1.43,14.9,14.9,0,0,0-1,4.25c-.61,3.31,1.24,6.44,4.15,7s5.76-1.7,6.38-5c.29-1.59.93-3,.62-4.2a.59.59,0,0,1,.63-.75C2624.33,1079.93,2627.35,1077.14,2627.56,1075.86Z"/><path class="cls-20" d="M2763.69,1095.51s-22.07,39.61-5.4,69.74,45.52,71.3,30.85,97.3,17.85,45.55,32.52,26.21c8.74-11.52,35.25-45.23,54.4-45.23,19.48,0-45.23,59.74-2.63,65.37,5.63.75,43.1-27.73,42.87-48-.1-9.7-21.94-40.42-29-52.57C2887.31,1208.33,2824.77,1109.41,2763.69,1095.51Z"/><path class="cls-20" d="M2779,1233.53c0,17.89-8.11,42.41-21.28,42.41s-22.93-24.87-26.43-42.41c-5.34-26.71,11.63-37.3,23.85-32.39C2772.79,1208.22,2779,1215.65,2779,1233.53Z"/><path class="cls-23" d="M2693,1247.41c1.11,13.15,8.33,101.52,4.56,125.48"/><path class="cls-23" d="M2766.16,1297.06c1.11,13.15-17.83,62.06-21.6,86"/><path class="cls-24" d="M2665.24,1333.53s-18.39-36.47-20.09-61.65"/><path class="cls-17" d="M2840,1293.57s-61-18.45-67,41.84c-1.88,18.75,9.09,38,32.08,50.31"/><polygon class="cls-20" points="2891.32 1029.55 2891.32 1029.55 2891.32 1029.55 2891.32 1029.55"/><polygon class="cls-20" points="2913.33 1086.45 2913.32 1086.45 2913.33 1086.45 2913.33 1086.45"/><path class="cls-20" d="M2888.07,1011.17l-.23-1.33c-10.58-6.13-22.72-21-26.34-25.58a77.89,77.89,0,0,0-7.06,19.51L2886.3,1026A65.08,65.08,0,0,1,2888.07,1011.17Z"/><path class="cls-20" d="M2887.08,1037.44c-11.08-6.06-28.15-14.46-34.53-17.58,0,.51,0,1,0,1.51a83.52,83.52,0,0,0,4.54,28.12,4.72,4.72,0,0,1,.18.53c.61,2.23,2.79,7.09,6,13.72l27.64-10A94.74,94.74,0,0,1,2887.08,1037.44Z"/><path class="cls-20" d="M2905.49,1084.23c-1.5-2.43-2.9-4.8-4.2-7.13-10.24-.21-23.25,1.47-30,2.47,4.71,9.11,10.25,19.52,16,30.26l22.27-20c-2.32-3.23-3.72-5.08-3.81-5.2S2905.58,1084.36,2905.49,1084.23Z"/><path class="cls-20" d="M2895,1124c5.9,10.87,11.79,21.6,17.09,31.21l24.93-22.4c-2.31-4.11-4.63-8.06-6.9-11.81C2917.85,1120.8,2900.66,1123.13,2895,1124Z"/><path class="cls-20" d="M2920.76,1170.19s36.71,66.69-4.45,84.55c-24.71,10.72-28.31,41.73-8,49.36,21.33,8,35.34-15.84,35.34-15.84s26.24-23.63,24.66-66.21c-1.35-36.2-17.72-62.58-17.72-62.58Z"/><path class="cls-25" d="M2704.16,996.61c0,13.49,25.72,44.07,37.57,44.07.92-12.26,6.26-17.64,9.29-28.93,3.48-13-9.61-24.43-21.47-24.43S2713.3,990,2704.16,996.61Z"/></g><polygon class="cls-26" points="1228.8 1422.63 1099.1 1422.63 1121.6 1328.74 1206.3 1328.74 1228.8 1422.63"/><path class="cls-27" d="M1157.39,1403.6l-101.05-97.49c-1.29-1.13-36.92-33.68-36.92-72.55,0-47.45,29-75.79,77.41-75.79,28.34,0,54.89,22.35,67.69,35,12.79-12.63,39.35-35,67.69-35,48.42,0,77.4,28.34,77.4,75.79,0,38.87-35.62,71.42-37.08,72.87l-100.89,97.17a10.18,10.18,0,0,1-14.25,0Z"/><path class="cls-28" d="M1164.52,1422.63a26,26,0,0,1-18.4-7.51l-100.83-97.27c-4.5-4.13-42-39.87-42-84.29,0-27.71,8.78-51,25.39-67.21s40.07-24.7,68.14-24.7c26.73,0,51.2,15.51,67.69,29.32,16.48-13.81,41-29.32,67.69-29.32,28.06,0,51.62,8.54,68.13,24.7s25.4,39.5,25.4,67.21c0,41.06-32,74.84-41.74,84.21l-.29.27-100.8,97.09A26,26,0,0,1,1164.52,1422.63Zm-102.39-128,.56.51,101.83,98.25,101.64-97.89.4-.38c16.14-15.45,33.38-40.37,33.38-64,0-40.4-22.85-62.65-64.35-62.65-8.09,0-30.07,3.1-59.18,31.84l-11.89,11.75-11.9-11.75c-29.11-28.74-51.08-31.84-59.18-31.84-41.5,0-64.35,22.25-64.35,62.65,0,16.58,8.43,32.41,15.5,42.77A126.83,126.83,0,0,0,1062.13,1294.67Z"/><path class="cls-29" d="M1165.44,1310.79c-20.61,0-38.67,12.1-48.76,30.24l48.76,47,48.79-47C1204.15,1322.91,1186.07,1310.79,1165.44,1310.79Z"/><path class="cls-29" d="M1221.78,1283.77c-1.18-13.57-4.45-30.18-4.45-30.18-3.81-9.67-3-17.8-51.75-15.68-49.22-4.16-37.49,9.9-49.72,16.7a286.78,286.78,0,0,0-4.58,29.5s-8.65,18.34,28,43.77c0,0,21.88,12.21,34.08,7.63l20.48-8C1230.43,1302.11,1221.78,1283.77,1221.78,1283.77Z"/><path class="cls-29" d="M1138.24,1240.87l-12.89-14.41a57.51,57.51,0,0,0-11.68-13c-5.16-3.67-12.83-5.73-13.28-1.13,0,0,.55,31.76,7.67,46,0,0,1.18,11.5,3.81,16.9a11.69,11.69,0,0,0,.59,1.07"/><path class="cls-30" d="M1116.87,1265.63s-9-27.79-9.58-39.93c0,0-1.39-7.75.52-8.67,0,0,1.66-1.45,7,5.7l17.29,20S1123.49,1267.32,1116.87,1265.63Z"/><path class="cls-29" d="M1190,1240.47l11.42-15.6a57.66,57.66,0,0,1,10.35-14.08c4.78-4.16,12.21-7,13.12-2.42,0,0,2.55,31.67-3.15,46.54,0,0-.06,11.56-2.15,17.19a10.74,10.74,0,0,1-.49,1.12"/><path class="cls-30" d="M1213.62,1263s6.25-28.53,5.65-40.67c0,0,.63-7.85-1.36-8.58,0,0-1.79-1.28-6.44,6.36l-15.26,21.6S1207.21,1265.35,1213.62,1263Z"/><path d="M1127.05,1286a22.12,22.12,0,0,0,20.7,4.75s4.85-2.16,6.19-4.35c0,0-7.15-15.05-20.36-10.51C1133.58,1275.89,1126.83,1278.73,1127.05,1286Z"/><path d="M1206.88,1282.12s-5.87,9.54-19.69,8c0,0-5.07-1.16-6.76-3.1,0,0,3.7-16.09,17.47-13.81C1197.9,1273.18,1205.88,1274.92,1206.88,1282.12Z"/><path class="cls-31" d="M1150.08,1320s4.93,1.27,7.78.08c0,0,5.8-1.81,6.19-7.62"/><path class="cls-31" d="M1180.43,1319.46s-4.92,1.26-7.77.08c0,0-5.8-1.82-6.19-7.62"/><path d="M1175,1304.35c0-2.54-4.41-4.62-9.89-4.65s-9.93,2-9.94,4.52c0,1.39,1.35,2.63,3.46,3.49.4,2.2,3.26,3.93,6.78,4,3.71,0,6.73-1.85,6.9-4.22C1173.92,1306.63,1175,1305.55,1175,1304.35Z"/><path class="cls-32" d="M1266.35,1257.32c.94.86.68,2.09-.82,3.74s-2.71,2-3.65,1.17l-1.64-1.5c-4.07-3.71-7.15-4.37-9.33-2l-1.77,2,7.72,7c.94.86.68,2.1-.82,3.74s-2.7,2-3.64,1.17l-21-19.16c-1-.89-1.08-1.79-.25-2.69l5.81-6.38c4.26-4.67,9.47-5.27,14.17-1a8.08,8.08,0,0,1,2.76,8.1q4.67-1.37,9.74,3.28Zm-21.38-.42,2.15-2.35c1.93-2.12,1.8-4.14-.35-6.1s-4.17-1.89-6.1.22l-2.14,2.35Z"/><path class="cls-32" d="M1275,1247.82c.94.86.68,2.09-.82,3.74s-2.7,2-3.64,1.16l-21.37-19.47c-.94-.85-.67-2.09.83-3.73s2.7-2,3.64-1.17Z"/><path class="cls-32" d="M1276.83,1231.52,1284,1238c.94.86.68,2.09-.82,3.74s-2.71,2-3.65,1.16l-21-19.16c-1-.88-1.08-1.78-.26-2.68l5.54-6.08c4.29-4.71,9.74-5.15,14.67-.65s5,10,.72,14.66Zm-11.22-10.22,7.06,6.43,1.83-2q3-3.27-.55-6.47c-2.36-2.14-4.51-2.14-6.5,0Z"/><path class="cls-32" d="M1050.92,1227.58l3.63-4a1,1,0,0,0-.06-1.42l-3.07-2.79a1,1,0,0,0-1.42.06l-12,13.14a1,1,0,0,0,.07,1.41l3.07,2.8a1,1,0,0,0,1.41-.07l3.63-4,13.59,12.38a1,1,0,0,0,.67.26,1,1,0,0,0,.74-.32l3.37-3.69a1,1,0,0,0-.07-1.42Z"/><path class="cls-32" d="M1066.85,1202.45a1,1,0,0,0-1.42.07l-3.35,3.68a1,1,0,0,0,.07,1.41l6.08,5.54-4.93,5.41-6.08-5.54a1.08,1.08,0,0,0-.72-.26,1,1,0,0,0-.69.33l-3.37,3.68a1,1,0,0,0,.07,1.42l17.4,15.85a1,1,0,0,0,.67.26,1,1,0,0,0,.74-.32l3.36-3.69a1,1,0,0,0-.06-1.42l-6.77-6.16,4.93-5.42,6.77,6.17a1,1,0,0,0,1.41-.06l3.35-3.68a1,1,0,0,0,.26-.72,1,1,0,0,0-.33-.69Z"/><path class="cls-32" d="M1098.92,1199c-.26-3.08-2-6.06-5-8.84a18.52,18.52,0,0,0-4.55-3.14,7.7,7.7,0,0,0,.07-3.6,12.91,12.91,0,0,0-2.31-4.66,1,1,0,0,0-.64-.39l-.41-.07a1,1,0,0,0-.91.31l-3.27,3.58a1.07,1.07,0,0,0-.26.72,1,1,0,0,0,.33.69,6.53,6.53,0,0,1,1.84,2.38,12.07,12.07,0,0,0-7.75,4.32c-2.63,2.88-3.83,5.92-3.58,9s1.92,6.06,5,8.85,6.16,4.19,9.23,4.19h.06c3.13,0,6-1.48,8.65-4.35S1099.2,1202.14,1098.92,1199Zm-18.34-4.53a4.33,4.33,0,0,1,3.24-1.65c1.51,0,3.27.9,5.22,2.68,4.6,4.19,3.22,6.77,1.78,8.35a4.23,4.23,0,0,1-3.66,1.64,9,9,0,0,1-4.82-2.64,8.84,8.84,0,0,1-3.06-4.57A4.27,4.27,0,0,1,1080.58,1194.49Zm6.1,16.9Z"/><path class="cls-32" d="M1075.61,1279.13l-11.16-10.77c-.14-.13-4.08-3.72-4.08-8,0-5.24,3.21-8.37,8.55-8.37,3.14,0,6.07,2.47,7.48,3.87,1.41-1.4,4.35-3.87,7.48-3.87,5.35,0,8.55,3.13,8.55,8.37,0,4.3-3.94,7.89-4.1,8.05l-11.14,10.74a1.14,1.14,0,0,1-.79.32A1.16,1.16,0,0,1,1075.61,1279.13Z"/><path class="cls-32" d="M1251.14,1211.9,1240,1201.13c-.14-.13-4.08-3.72-4.08-8,0-5.25,3.21-8.38,8.55-8.38,3.14,0,6.07,2.47,7.48,3.87,1.42-1.4,4.35-3.87,7.48-3.87,5.35,0,8.55,3.13,8.55,8.38,0,4.29-3.94,7.88-4.1,8l-11.14,10.74a1.14,1.14,0,0,1-.79.32A1.16,1.16,0,0,1,1251.14,1211.9Z"/><path class="cls-32" d="M1243.49,1299.75l-7.89-7.61c-.1-.09-2.88-2.63-2.88-5.66,0-3.71,2.27-5.92,6-5.92,2.22,0,4.29,1.75,5.29,2.73,1-1,3.07-2.73,5.28-2.73,3.78,0,6,2.21,6,5.92,0,3-2.78,5.57-2.89,5.68l-7.88,7.59a.77.77,0,0,1-.55.22A.79.79,0,0,1,1243.49,1299.75Z"/><path class="cls-33" d="M2219.92,76.54s82-3.32,97,58.71c0,0,32.51,90.62-24,115.29,0,0,11,51.34,42,39.41,0,0,74.2-122-12-206.44,0,0-72.42-67.12-149.36-10.45,0,0-29.45,27.06-1.59,58.1,0,0,13.53,10.34,13.53-11.94C2185.44,119.22,2186.3,80.08,2219.92,76.54Z"/><path class="cls-19" d="M2233.9,382c8.86,14.63,21.06,26.91,31.23,40.67s29.32,30.89,28.55,48c-.54,12.08.21,39.44-12.28,41.81-14,.81-27.15,11.26-21.08,23.89,5.62,4.78,14.32,4.21,20.77.64s11.16-9.53,15.69-15.34L2313.69,500c11.31-14.5,23-29.94,25.45-48.17.69-5.21.56-10.67-1.56-15.48a37.33,37.33,0,0,0-6-8.77c-17.85-21.28-39.55-40.51-65.95-49.14-8.35-2.72-28.89-11.2-32.7-3.3"/><path class="cls-33" d="M2074.19,422.41s22-74.58,14.49-86.25c0,0-53.48-32-74.16-5.68,0,0-9.47,38.54,13.23,74.53l12,24.93s10.23,48.62,14.34,68h25.08Z"/><path class="cls-2" d="M2050,504.24c-4-.33-19.35-.71-24,11.35,0,0-5.29,7.17-1.66,13.52l57.29-1.27-1.24-12.68L2079.21,498h-25.08c.51,2.38.92,4.32,1.21,5.68Z"/><path class="cls-34" d="M2088.68,336.16s-53.48-32-74.16-5.68c0,0-9.47,38.54,13.23,74.53l12,24.93s12.9,61.3,15.55,73.69l-5.34.61c-4-.33-19.35-.71-24,11.35,0,0-5.29,7.17-1.66,13.52h0l57.29-1.27-1.24-12.68-6.16-92.75S2096.21,347.83,2088.68,336.16Z"/><path class="cls-33" d="M2351.39,406.74s-14.63-20.89-10.45-44.77l-.06-.09c2.29-16.55,10.69-99.17-48-111.34,0,0-153.68-31.83-202.63-22.28,0,0-40.67-11.65-70.91-36.72l-81.31,24s-22.28,70.84,33.43,117c0,0,30.62,41.73,93.78,43.26a98,98,0,0,0,8.89,37.13l8.76,26.26s-9.15,47.36-.8,70l1.42,4.95c-4-.84-19.1-3.18-25.29,8.19,0,0-5.18,10.74-2.39,17.51l.79,3.58,55.26-2.79.4-12.73,4-92.33s10.83-23.17,19-45.32c22.55,2.81,81.18,2.14,104.64-8.28,8.53,9.38,19.76,18.75,34.45,27.74l32.24,22.68s18.5,14,8.35,25.67l-31.63,61.48s-25.67,8.36-21.49,27.46l29.84-.6s45.37-58.79,61.19-96.7C2352.88,449.72,2369,426.44,2351.39,406.74Z"/><path class="cls-2" d="M2083.52,514.16c-4-.84-19.1-3.18-25.29,8.19,0,0-5.18,10.74-2.39,17.51l.79,3.58,55.26-2.79.4-12.73.8-18.41h-30.9Z"/><path class="cls-2" d="M2003.21,220.5h-66.45c-3.83,16.89-12.16,73.18,34.71,112,0,0,30.61,41.73,93.78,43.26l-30.88-32.16c-19.08-19.88-40.81-58.71-20.8-91.65C2027,229.84,2003.21,220.5,2003.21,220.5Z"/><path d="M2159.93,388.41c-2.13-36.9-11.3-46.17-18.26-55.46,6.38-13.93-9.75-45.79-11-55.15-2.54-18.57-1.16-49.64-1.16-49.64h-26.71s-1.74,5.51,3.69,17.71,11.31,20,11.28,35.05c0,11.16-7.42,32.29,12.9,57.25-8.71,19.16,16,48.71,16,48.71h5.19s-16.51-33.26-10-35.27,13.68,35.27,13.68,35.27Z"/><path d="M2199.63,388.41c-2.13-36.9-18.8-35.49-29.25-55.46s-9.75-45.79-11-55.15c-2.54-18.57-1.16-49.64-1.16-49.64h-26.71s-1.74,5.51,3.69,17.71,10.12,9,10.09,24c0,11.17,2.8,56,14.09,68.3s5.8,50.24,5.8,50.24Z"/><path d="M2086,269.89c0,3.53-8.2,1.95-10.62,7-2.19,4.55-5.57,5.2-7.51,3.35-4-3.77,2.85-7.86,2.85-13.23s.69-9.11,6.17-9.11c3.5,0,1.61,4.61,3.14,7.15C2080.94,266.48,2086,268,2086,269.89Z"/><path d="M2095.22,311.76c3.09,1.71-2.25,8.13,1,12.69,2.93,4.11,1.87,7.38-.69,8.19-5.21,1.66-5.5-6.29-10.21-8.89s-7.64-5-5-9.79c1.69-3.06,4.82.8,7.78.69C2089.77,314.59,2093.53,310.83,2095.22,311.76Z"/><path d="M2058.38,294.34c3.4-.93,4,7.39,9.56,8.4,5,.91,6.48,4,5.21,6.36-2.59,4.82-8.33-.68-13.52.74s-9,1.73-10.41-3.55c-.92-3.37,4-2.77,6.06-4.92C2056.44,300.16,2056.51,294.85,2058.38,294.34Z"/><path d="M2017.72,299.41c.18-3.53,8.29-1.55,11-6.47,2.4-4.43,5.81-4.91,7.66-3,3.78,4-3.24,7.7-3.5,13.08s-1.15,9.05-6.62,8.78c-3.49-.17-1.38-4.68-2.78-7.29C2022.66,303.07,2017.63,301.34,2017.72,299.41Z"/><path d="M2056.15,287.55c1.4,3.24-6.74,5.06-7,10.66-.19,5-3,7-5.55,6.07-5.14-1.87-.52-8.34-2.67-13.28s-3-8.62,2-10.8c3.21-1.4,3.32,3.57,5.74,5.29C2050.1,286.46,2055.37,285.77,2056.15,287.55Z"/><path d="M2066.38,333.91c-3.52,0-2-8.18-7.11-10.55-4.57-2.13-5.27-5.5-3.44-7.47,3.72-4,7.89,2.77,13.27,2.71s9.11.59,9.17,6.06c0,3.5-4.59,1.67-7.11,3.23C2069.74,328.77,2068.32,333.89,2066.38,333.91Z"/><path d="M2029.21,332.22c-3.52,0-2-8.18-7.11-10.55-4.57-2.13-5.27-5.51-3.44-7.47,3.72-4,7.89,2.76,13.27,2.7s9.11.59,9.17,6.07c0,3.49-4.59,1.67-7.11,3.22C2032.57,327.07,2031.15,332.19,2029.21,332.22Z"/><path d="M2081.23,350.41c-2.34,2.64-7.43-4-12.6-1.81-4.64,2-7.61.21-7.84-2.46-.47-5.45,7.34-4,10.91-8s6.55-6.36,10.65-2.73c2.62,2.32-1.84,4.52-2.38,7.43C2079.67,344.47,2082.52,349,2081.23,350.41Z"/><path d="M2039.5,258.37c-2.34,2.64-7.43-4-12.59-1.8-4.65,1.95-7.62.2-7.85-2.47-.47-5.45,7.35-4,10.91-8s6.55-6.36,10.65-2.73c2.62,2.32-1.84,4.52-2.38,7.44C2037.94,252.43,2040.79,256.92,2039.5,258.37Z"/><path d="M2069.71,249.58c2.17,2.78-5.27,6.58-4.07,12,1.07,4.93-1.19,7.53-3.86,7.27-5.44-.53-2.59-7.95-5.9-12.19s-5.05-7.6-.74-11c2.76-2.15,4.11,2.63,6.88,3.69C2063.58,250,2068.51,248.05,2069.71,249.58Z"/><path d="M2076.3,352.13c3.41-.93,4,7.39,9.56,8.4,5,.91,6.48,4,5.22,6.36-2.59,4.82-8.34-.68-13.53.74s-9,1.74-10.4-3.54c-.93-3.38,4-2.78,6.06-4.92C2074.36,358,2074.43,352.64,2076.3,352.13Z"/><path d="M2092,373.54c-.4-3.51,7.93-2.87,9.77-8.16,1.66-4.76,4.94-5.8,7.08-4.18,4.37,3.29-1.94,8.13-1.33,13.47s.34,9.12-5.1,9.74c-3.48.4-2.13-4.39-3.94-6.74C2097.48,376.35,2092.24,375.46,2092,373.54Z"/><path d="M2128.49,353.35c1.31,3.28-6.9,4.85-7.28,10.44-.34,5-3.24,6.9-5.73,5.9-5.08-2-.26-8.36-2.26-13.35s-2.72-8.71,2.36-10.74c3.25-1.3,3.21,3.67,5.57,5.47C2122.48,352.08,2127.77,351.55,2128.49,353.35Z"/><path d="M2097.3,361.46c-3.52.24-2.5-8-7.7-10.12-4.68-1.88-5.57-5.2-3.86-7.27,3.5-4.21,8,2.31,13.4,1.95s9.13.07,9.5,5.53c.24,3.49-4.48,1.93-6.91,3.63C2100.36,356.14,2099.24,361.33,2097.3,361.46Z"/><path d="M2108.53,326.61c3.43-.87,3.91,7.47,9.4,8.59,4.94,1,6.4,4.11,5.09,6.45-2.68,4.77-8.32-.83-13.53.49s-9,1.55-10.34-3.75c-.86-3.39,4.06-2.7,6.15-4.8C2106.48,332.4,2106.65,327.09,2108.53,326.61Z"/><path d="M2086.64,264.94c-3.53.24-2.51-8.05-7.71-10.12-4.68-1.87-5.56-5.2-3.85-7.27,3.49-4.21,8,2.31,13.4,1.95s9.13.08,9.5,5.53c.23,3.5-4.48,1.93-6.92,3.63C2089.69,259.62,2088.57,264.81,2086.64,264.94Z"/><path d="M2064.42,239.56c-1.17,3.33-8.38-.89-12.35,3.07-3.57,3.56-7,3.05-8.2.66-2.48-4.88,5.31-6.46,7.1-11.53s3.68-8.36,8.84-6.54c3.3,1.17,0,4.88.6,7.79C2060.74,234.65,2065.07,237.73,2064.42,239.56Z"/><path d="M2048.8,226.87c-3.44.81-3.78-7.54-9.26-8.74-4.92-1.08-6.33-4.22-5-6.54,2.76-4.73,8.3,1,13.54-.26s9-1.41,10.27,3.91c.8,3.41-4.11,2.63-6.23,4.7C2051,221.11,2050.68,226.42,2048.8,226.87Z"/><path d="M2074.35,300.31c-3.44.81-3.78-7.53-9.25-8.74-4.93-1.08-6.34-4.22-5-6.54,2.76-4.72,8.3,1,13.54-.26s9-1.41,10.27,3.92c.81,3.4-4.1,2.63-6.23,4.7C2076.5,294.56,2076.24,299.87,2074.35,300.31Z"/><path d="M2082,225c3.21,1.46-1.62,8.27,2,12.57,3.23,3.87,2.43,7.21-.06,8.22-5.07,2.05-6-5.85-10.87-8.07s-8-4.4-5.74-9.38c1.45-3.19,4.86.43,7.81.09C2076.8,228.24,2080.25,224.2,2082,225Z"/><path d="M2102.62,298.87c-1.17,3.33-8.38-.89-12.35,3.07-3.57,3.56-7,3.05-8.2.66-2.48-4.87,5.31-6.46,7.1-11.53s3.68-8.35,8.84-6.53c3.3,1.16,0,4.87.59,7.78C2098.94,294,2103.27,297.05,2102.62,298.87Z"/><path d="M2108.65,274.16c-1.17,3.33-8.38-.88-12.35,3.07-3.57,3.56-7,3-8.2.66-2.48-4.87,5.31-6.46,7.1-11.53s3.68-8.35,8.84-6.53c3.31,1.16,0,4.87.6,7.78C2105,269.25,2109.3,272.34,2108.65,274.16Z"/><path d="M2099.7,325.11c-3.11-1.68,2.18-8.14-1.11-12.68-3-4.08-1.92-7.37.63-8.2,5.2-1.7,5.55,6.25,10.28,8.81s7.68,4.94,5.08,9.75c-1.67,3.08-4.82-.76-7.78-.63C2105.13,322.24,2101.4,326,2099.7,325.11Z"/><path d="M2025.08,266.12c3.09,1.71-2.25,8.12,1,12.69,2.93,4.1,1.87,7.38-.69,8.19-5.21,1.66-5.5-6.29-10.21-8.89s-7.64-5-5-9.79c1.69-3.07,4.81.8,7.78.69C2019.63,269,2023.38,265.19,2025.08,266.12Z"/><path d="M2038.3,227.63c.61,3.48-7.74,3.34-9.26,8.73-1.37,4.85-4.58,6.08-6.82,4.6-4.56-3,1.45-8.24.53-13.53s-.89-9.09,4.5-10c3.45-.61,2.39,4.25,4.33,6.49C2032.68,225.15,2038,225.72,2038.3,227.63Z"/><path d="M2060.29,333.26c.61,3.48-7.74,3.34-9.26,8.73-1.36,4.86-4.58,6.09-6.81,4.6-4.56-3,1.45-8.23.52-13.53s-.89-9.08,4.5-10c3.45-.6,2.39,4.25,4.34,6.49C2054.67,330.78,2060,331.35,2060.29,333.26Z"/><path d="M2048.82,260.41c3.42.88-.14,8.43,4.15,12,3.87,3.24,3.67,6.68,1.39,8.11-4.63,2.91-6.91-4.71-12.12-6s-8.64-2.92-7.29-8.22c.86-3.4,4.86-.44,7.7-1.29C2044.25,264.52,2046.94,259.93,2048.82,260.41Z"/><path class="cls-2" d="M2239.93,382c8.53,9.38,19.76,18.75,34.45,27.74l32.24,22.68s18.5,14,8.35,25.67l-31.63,61.48s-25.67,8.36-21.49,27.46l29.84-.6s45.37-58.79,61.19-96.7c0,0,16.12-23.28-1.49-43,0,0-11.68-16.69-11.17-37.29l-.7-.17S2286.65,373.27,2239.93,382Z"/><path class="cls-17" d="M2351.39,406.74s-14.63-20.89-10.45-44.77l-.06-.09c2.29-16.55,10.69-99.17-48-111.34,0,0-153.68-31.83-202.63-22.28,0,0-40.67-11.65-70.91-36.72l-81.31,24s-22.28,70.84,33.43,117c0,0,30.62,41.73,93.78,43.26a98,98,0,0,0,8.89,37.13l8.76,26.26s-9.15,47.36-.8,70l1.42,4.95c-4-.84-19.1-3.18-25.29,8.19,0,0-5.18,10.74-2.39,17.51l.79,3.58,55.26-2.79.4-12.73,4-92.33s10.83-23.17,19-45.32c22.55,2.81,81.18,2.14,104.64-8.28,8.53,9.38,19.76,18.75,34.45,27.74l32.24,22.68s18.5,14,8.35,25.67l-31.63,61.48s-25.67,8.36-21.49,27.46l29.84-.6s45.37-58.79,61.19-96.7C2352.88,449.72,2369,426.44,2351.39,406.74Z"/><path d="M2125.87,413.86c3.57-7-14.47-6.87-29.26-12s-20.92-.5-15,3.31,2.9,6.8,14.55,11.15S2124,417.59,2125.87,413.86Z"/><path d="M2316.18,229.15c-1.45,7.71,9,13.26,19.14,25.17s17.78,11,14.62,4.77.95-7.33-6.89-17S2320.73,205.12,2316.18,229.15Z"/><path d="M2361.51,223.48c6.13-4.9-6.22-10.75-17.59-21.5s-18.86-9.06-15.05-3.17-5.9,14.14,2.94,22.9S2358.24,226.09,2361.51,223.48Z"/><path d="M2366.76,173.86c3-7.07-13.25-6.48-26.73-11.22s-18.89.05-13.46,3.7-8,16.11,2.68,20.15S2365.15,177.64,2366.76,173.86Z"/><path d="M2351.06,117.08c1.68-7.51-23.35-3.66-35-3.22-14.28.53-7.2,11.88-1.2,14.48s-2.09,12.25,9.29,12.24C2352.46,140.55,2350.17,121.09,2351.06,117.08Z"/><path d="M2311.43,70c-2-7.42-26.88,3.19-32.5,13.43-2.44,4.44.68,6.31,5.88,10.28,5.66,4.32,12,11.78,13.71,9.62C2307.69,91.94,2312.5,74,2311.43,70Z"/><path d="M2264.64,63.6c-7.16-3.76-19.4,9.14-16.33,16.59,1.34,3.23,5.26,3.47,12.44,4.36,7.8,1,18.48,3.56,18.28,1.84C2278,77.3,2268.47,65.6,2264.64,63.6Z"/><path d="M2218.77,62.93c-7.17-3.76-17.31,7.47-14.24,14.92,1.34,3.23,6.76-1.61,13.94-.72,7.8,1,11.38,3.5,11.18,1.78A20.57,20.57,0,0,0,2218.77,62.93Z"/><path d="M2118,434c2.62-4.9-10.57-4.82-21.38-8.42s-15.3-.35-11,2.32,2.12,4.77,10.64,7.82S2116.65,436.57,2118,434Z"/><path d="M2119.33,465.79c2.62-4.9-10.58-4.82-21.38-8.41s-15.3-.36-11,2.31,2.12,4.78,10.64,7.83S2117.94,468.41,2119.33,465.79Z"/><path d="M2130,403.44c3.83-2.44-12-5.86-24.51-11s-18.32-4.25-13.51-1.4,1.88,3.61,11.68,7.8S2127.91,404.75,2130,403.44Z"/><path d="M2067.38,399.3s-45.94,11.46-31.49,11.72c15.52.28,36.08,8.59,36.08,8.59Z"/><path d="M2061.41,383.61s-17.17,8.07-27.46,6.7c-6.88-.92-6.59,2.81-2.58,3.67,15.93,3.44,33.88,2.32,33.88,2.32Z"/><path d="M2074.68,430.19s-27.3,3-33.92,4.35c-11.47,2.4,38.51,15.95,38.51,15.95Z"/><path d="M2172.71,260c15.65,1.71,21.5-6.47,32.79-8,10.06-1.33,8.34,9.47,34.43,5.81,18.36-2.57,30.9,10.91,38.09,17s4,14.06,0,20.45-11.28-12.24-29.55-16c-14.82-3,.6-3.43-34-4.28-6.41-.16,0-15.76-21.91,1.31-10.36,8.06-29.31,2.74-34.88.32S2143.14,256.82,2172.71,260Z"/><path d="M2194.15,301.74c-.4-.72.1-1.75.78-2.74,2-3,7.41-11.84,12.8-12.73,7.19-1.2,26.05-1,32.2,4.89s14.93,13.77,11.73,25.35-5,15.58.68,25.16,3.83,22.59,3.32,30.13-4.8,16.2-11.19-7-15.17-39.14-16-48.32-3.2-15-12.78-14.77C2202,302.13,2200.54,312.93,2194.15,301.74Z"/><path d="M2222.49,379.84c-2.28-2.85-15-17-17.38-29.08s-.91-24.74,2.41-25,17.87-6.93,15,0-6.82,6.34-3.81,13.58,3.66,5.41,6.51,11.91,6.46,5.58,2.84,12.52,2.11,13.27,3.62,14.78S2229.29,388.35,2222.49,379.84Z"/><path d="M2257.45,308.85c0-8.9,23.46-11.48,27.47-.57s-2.27,9.16-3.94,17.92-11.07,28.78-15,18.26,4.47-16.76.54-21.89S2257.49,323.74,2257.45,308.85Z"/><path d="M2287.56,335.5c-3.64,3.95-5.52,10.65-13.41,22.31s-21.2,19.63-8,18.71.93-7,11.9-13.19,14-8.49,17-18.87S2291.51,331.22,2287.56,335.5Z"/><path d="M2161.35,300.77c4.33-4.06-1-9.54,13.13-9s13.32,5.39,14.16,12.57-2.8,1.12-7.43,13.74-3.14,24.3-10.83,14.89S2149.62,311.77,2161.35,300.77Z"/><path d="M2156.67,237.88c1.36.59,18.39,9.07,34.91,8.25s63.16.53,75.55,5.84,38,20.82,46.65,32.06,16.93,16.85,11.15,1.65.32-23.32-15.86-29.23-145.46-32.64-150.88-28.29S2148.93,234.49,2156.67,237.88Z"/><path d="M2290.2,284s4.94,19,4.92,27.58,2.43,16.55,10.61,8.48,19.48-3,26.9-8.48-1.57-8.43-13.83-8.92-18.44-5.1-19-15.46S2286.21,265.45,2290.2,284Z"/><path d="M2337.07,347.31s-11.35-3.78-24.69,5-29.29,5.43-22.29,11.16c4.7,3.84-1.63,3.61,18-3.51s9.16-.86,24.57-4S2343.74,348.12,2337.07,347.31Z"/><path d="M2338.29,330.74s-11.34-3.78-24.68,5-23.92,14.77-4.32,7.64,9.16-.85,24.57-4S2345,331.55,2338.29,330.74Z"/><path d="M2160.37,97.69c5.05-33.49,31.86-7.8,31.86-7.8s-4.32,38.94-9.36,41.29S2157.35,117.72,2160.37,97.69Z"/><path class="cls-35" d="M2356.28,137.92s-1.45,1.71-13.19,11.37c-5.64,4.65,18.17,11.37,18.17,11.37S2360.66,147.7,2356.28,137.92Z"/><path class="cls-35" d="M2321.94,82.12a56.32,56.32,0,0,0-10.37,22.26c-1.25,6.16,27.72-6.78,27.72-6.78S2331,87.77,2321.94,82.12Z"/><path class="cls-35" d="M2239.34,47.2a56.32,56.32,0,0,0,3.45,24.32c2.32,5.84,19.54-20.8,19.54-20.8S2250,47,2239.34,47.2Z"/><path class="cls-35" d="M2367.13,182.45s-25.11,4.46-24,11.69,20.42,8.65,20.42,8.65S2371.51,192.23,2367.13,182.45Z"/><path class="cls-35" d="M2357.25,230.54s-13.83-2.79-15,2.36,10.67,18.63,10.67,18.63S2358.08,238.23,2357.25,230.54Z"/><path class="cls-34" d="M2219.92,76.54s82-3.32,97,58.71c0,0,32.51,90.62-24,115.29,0,0,11,51.34,42,39.41,0,0,74.2-122-12-206.44,0,0-72.42-67.12-149.36-10.45,0,0-29.45,27.06-1.59,58.1,0,0,13.53,10.34,13.53-11.94C2185.44,119.22,2186.3,80.08,2219.92,76.54Z"/><path class="cls-33" d="M2030.12,156.23c-1.39-15.92-5.22-35.42-5.22-35.42-4.48-11.34-3.59-20.89-60.74-18.4-57.75-4.88-44,11.61-58.35,19.59a339.57,339.57,0,0,0-5.37,34.63s-25.13,30.16,32.83,61.37c0,0,25.67,14.32,40,8.95l24-9.35C2056.69,184.76,2030.12,156.23,2030.12,156.23Z"/><ellipse class="cls-2" cx="1964.35" cy="201.33" rx="22.61" ry="24.32"/><path class="cls-34" d="M2030.12,156.23c-1.39-15.92-5.22-35.42-5.22-35.42-4.48-11.34-3.59-20.89-60.74-18.4-57.75-4.88-44,11.61-58.35,19.59a339.57,339.57,0,0,0-5.37,34.63s-25.13,30.16,32.83,61.37c0,0,25.67,14.32,40,8.95l24-9.35C2056.69,184.76,2030.12,156.23,2030.12,156.23Z"/><path class="cls-36" d="M1932.07,105.89,1917,89a67.36,67.36,0,0,0-13.7-15.25c-6.06-4.31-15.06-6.73-15.59-1.33,0,0,.64,37.28,9,54,0,0,1.38,13.5,4.47,19.84a13,13,0,0,0,.7,1.25"/><path class="cls-37" d="M1907.61,129.23s-8.44-26.08-9-37.49c0,0-1.31-7.27.48-8.13,0,0,1.56-1.36,6.6,5.35l16.24,18.78S1913.82,130.82,1907.61,129.23Z"/><path class="cls-36" d="M1992.76,105.41l13.4-18.31a67.42,67.42,0,0,1,12.16-16.51c5.6-4.88,14.33-8.16,15.38-2.84,0,0,3,37.16-3.69,54.61,0,0-.06,13.57-2.52,20.18a12.27,12.27,0,0,1-.58,1.31"/><path class="cls-37" d="M2019.17,126.11s5.87-26.78,5.3-38.19c0,0,.6-7.36-1.27-8,0,0-1.69-1.2-6,6l-14.33,20.28S2013.15,128.3,2019.17,126.11Z"/><path d="M1948.3,101.83c-.12,4.6-1.48,9.3,1.69,13.48,4.76,6.26-2.08,9.54,7.78,18.34.75.67,2.33,1.48,3.2.84a.91.91,0,0,0,.31-.84c0-1.93-5.1-5.49-5.71-7.39-2.85-8.79-2.14-15.4-1.66-24.36C1947.49,101.8,1948.3,101.83,1948.3,101.83Z"/><path d="M1980.53,103c1.15,4.45,5.18,14.53,3,19.31-3.23,7.17,4.17,8.83-3.47,19.62-.57.82-1.93,2-2.92,1.53a.9.9,0,0,1-.49-.74c-.39-1.9,3.73-6.49,3.91-8.48.8-9.21-2.93-22.62-5.41-31.24C1981.41,101.49,1980.53,103,1980.53,103Z"/><path d="M1977.81,102c.12,4.74,3.18,7.92,0,12.23-4.77,6.46-2.45,14.75-8.33,20.84-.71.73-1,.3-1,0a22.34,22.34,0,0,1,1.36-5.93,75.91,75.91,0,0,0,3.55-27.17c6.42-.1,10.63-.26,17.59.16"/><path d="M1946.12,108.66c-1.68,4.44-5.62,6.43-4,11.55,2.36,7.67-2.56,14.72,1,22.41.43.93.86.63,1,.34a22,22,0,0,0,.67-6.05c.31-9.5,3.72-23.19,7.22-31.75C1945.87,103,1946.12,108.66,1946.12,108.66Z"/><path d="M1960.07,101.86c.27,6.84,2.44,27.37,2.8,30.84.29,2.9.85,10.79,3,4s3.23-34.52,2.63-34.65c-2.4-.5-6.31-.08-8.38-.22"/><path d="M1914.57,158.84a26,26,0,0,0,24.29,5.58s5.69-2.54,7.26-5.11c0,0-8.39-17.66-23.88-12.33C1922.24,147,1914.31,150.31,1914.57,158.84Z"/><path d="M2018,154.3s-6.88,11.19-23.11,9.35c0,0-6-1.36-7.93-3.64,0,0,4.34-18.88,20.51-16.21C2007.47,143.8,2016.83,145.85,2018,154.3Z"/><path class="cls-38" d="M1984.62,182.45c0,13.44,8.94,16-19.22,16-26.34,0-22.74-5.43-22.74-18.87s10.06-18.87,22.55-18.87S1984.62,169,1984.62,182.45Z"/><path class="cls-22" d="M1946,199.5s5.78,2,9.13.12c0,0,6.81-7.84,7.26-17"/><path class="cls-22" d="M1981.59,199.5s-5.78,2-9.12.12c0,0-6.81-7.84-7.26-17"/><path d="M1975.17,175.44c0-3-5.17-5.41-11.6-5.45s-11.66,2.33-11.68,5.3c0,1.64,1.59,3.09,4.07,4.09.47,2.59,3.83,4.62,8,4.65,4.35,0,7.89-2.17,8.09-4.95C1974,178.13,1975.16,176.86,1975.17,175.44Z"/><path d="M2006.81,170.2a30.55,30.55,0,0,0,11.19-4.74c5-3.63,11.6-2.18,5.32,2.78S2007.47,177.47,2006.81,170.2Z"/><path d="M2008.08,177.9a25.13,25.13,0,0,0,8.23-2.93c3.64-2.24,8.53-1.34,3.92,1.72S2008.57,182.38,2008.08,177.9Z"/><path d="M1988.28,185.79s-5.31-6.93,0-3.85c16.54,9.6,47.41-.78,41.13,4.17S1994.91,197.09,1988.28,185.79Z"/><path d="M1923.21,170.2a30.55,30.55,0,0,1-11.19-4.74c-5-3.63-11.6-2.18-5.33,2.78S1922.55,177.47,1923.21,170.2Z"/><path d="M1921.94,177.9a25.13,25.13,0,0,1-8.23-2.93c-3.65-2.24-8.54-1.34-3.92,1.72S1921.45,182.38,1921.94,177.9Z"/><path d="M1941.74,185.79s5.31-6.93,0-3.85c-16.55,9.6-47.41-.78-41.13,4.17S1935.1,197.09,1941.74,185.79Z"/><path class="cls-39" d="M1474.57,1336.83c-27.41-2.81-53.72,15.08-68.4,38.4-4,6.4-7,15.83-1.17,20.7,5.12,4.31,12.92,1.38,18.6-2.17s12.27-7.78,18.54-5.44,8.7,10,14.27,13.63c3.57,2.33,8,2.73,12.29,3a239.77,239.77,0,0,0,50.71-2.75c18.37-3,53.91-21.33,30.38-41.83C1534.43,1347,1494.13,1338.84,1474.57,1336.83Z"/><path class="cls-40" d="M1461,1337.09s-58.46,22.92-31.3,23.58,48.62-15.23,62.72-6a39.7,39.7,0,0,0,28.43,6v-11.8S1479.2,1331.67,1461,1337.09Z"/><path class="cls-22" d="M1474.57,1336.83c-27.41-2.81-53.72,15.08-68.4,38.4-4,6.4-7,15.83-1.17,20.7,5.12,4.31,12.92,1.38,18.6-2.17s12.27-7.78,18.54-5.44,8.7,10,14.27,13.63c3.57,2.33,8,2.73,12.29,3a239.77,239.77,0,0,0,50.71-2.75c18.37-3,53.91-21.33,30.38-41.83C1534.43,1347,1494.13,1338.84,1474.57,1336.83Z"/><path class="cls-41" d="M1840.68,2237.94c-2-7.08,3.21-8.58,10.13-7.86-28.17-3.33-41-3.61-74.89,3.82-14.83,3.26-20.75,24.56-72.53,24.76-55.45.22-53.26,84.81-15.92,87.77,9.54.76,69.58-.85,82.64,0,31.75,2.08,14-36.51,36.8-34.39.55,5.88-8.06,31.58-1,33.87,7.82,2.54,19.53,3.42,30.77,3,1.11-5.69,2.58-13.57,4-22.37C1844.86,2301,1845.64,2255.42,1840.68,2237.94Z"/><path class="cls-42" d="M1869.18,2339.67c5.12-18.32,11.8-93.87-5.78-106.79a74.62,74.62,0,0,0-11.54-2.68l-1-.12c-6.92-.72-12.14.78-10.13,7.86,5,17.48,4.18,63,0,88.56-1.44,8.8-2.91,16.68-4,22.37C1852.68,2348.22,1867.74,2344.85,1869.18,2339.67Z"/><path class="cls-41" d="M1657.45,2237.94c-2-7.08,3.21-8.58,10.13-7.86-28.17-3.33-41-3.61-74.89,3.82-14.83,3.26-20.75,24.56-72.53,24.76-55.45.22-53.25,84.81-15.92,87.77,9.55.76,69.58-.85,82.64,0,31.75,2.08,14-36.51,36.81-34.39.54,5.88-8.07,31.58-1,33.87,7.82,2.54,19.53,3.42,30.77,3,1.11-5.69,2.58-13.57,4-22.37C1661.63,2301,1662.41,2255.42,1657.45,2237.94Z"/><path class="cls-42" d="M1686,2339.67c5.12-18.32,11.8-93.87-5.78-106.79a74.74,74.74,0,0,0-11.55-2.68l-1.05-.12c-6.92-.72-12.13.78-10.13,7.86,5,17.48,4.18,63,0,88.56-1.44,8.8-2.91,16.68-4,22.37C1669.45,2348.22,1684.51,2344.85,1686,2339.67Z"/><path class="cls-43" d="M1732.43,1739.79c1.79-50.8,4.39-109.9,46.31-145.31,32.59-27.53,79-37.1,119.33-45.47,65-13.49,131.1-21.06,197.1-27.47q4.34,99.46,8.66,198.92c-32.49.06-65,.75-97.45,2.24-31.2,1.46-62.44,3.43-93.41,7.59-22.42,2.89-18.13,50.59-19.92,70.49-11.82,134-15.59,330.73-18.24,364.54-1,12.68,0,63.94-30.19,63.94-31.75,0-58.07-.35-66.52,0-13,.52-24.48-20.91-29.06-70.23-6.4-68.76-21.65-281.86-16.61-419.23C1732.75,1730.55,1731.75,1758.3,1732.43,1739.79Z"/><path class="cls-44" d="M1546.56,1767.07c.33-9.24-.68,18.52,0,0Z"/><path class="cls-43" d="M2191.57,1548.82H1811.91a12.82,12.82,0,0,0-11.68,7.64c-83,7-171.85,22.27-220,77.65-30.48,35.71-32.11,88.85-33.67,133-5.37,146.25,7.14,294.08,18.69,439.78,3.52,44.49,23.77,28.67,64.36,27,40-1.6,61.74,12.37,62.29-31.39,1.67-132.74,3.65-266.57,17.64-398.68,4.72-44.53,1.54-45.32,47.36-49.59,19-1.77,100-4.88,138.68,6.48,170.79,50.23,282.12-7.69,282.12-7.69a26.72,26.72,0,0,0,26.64-26.65V1561.6A12.81,12.81,0,0,0,2191.57,1548.82Z"/><path class="cls-8" d="M1908.57,1628.65c57,21.19,229.07,14.6,250.72,2.49,39-21.83,45.2-52.32,45.2-91.4V1183.09c0-119.23-96.66-215.89-215.9-215.89h-25.83a125.11,125.11,0,0,0-125.11,125.11v188.43c0,51.78,44.35,108.47,37.16,160.14-4.54,32.67-74,85.25-67.75,117.62C1813.69,1592.58,1892.1,1622.52,1908.57,1628.65Z"/><path class="cls-45" d="M1532.46,1346.71c29.67-6.19,169.12-11.57,189.55-27.12,17.07-13,54-137.54,67.41-171.08,18.09-45.08,40.41-153.45,104.78-148.19,79.11,6.45,72.24,125,57,167.67-22.22,62-125.7,223.74-148.29,244.2-43,39-79.83,20.79-130.47,14.61-28.53-3.48-127.65-8.87-151.85-25.62-22-15.22-13.51-49.17,11.9-54.47C1580.34,1336.72,1516.66,1350,1532.46,1346.71Z"/><path class="cls-2" d="M1911.28,1006.73s-44.76-.69-77.15,104.22-59.48,195.23-82.41,221.63-205,35.09-220.94,34.22-29.18-21,18.07-25.35,128.17-1.22,164.83-16.51c25.71-27.79,99.22-241.78,99.22-241.78S1850.59,974.77,1911.28,1006.73Z"/><path class="cls-34" d="M1722,1319.59c17.07-13,54-137.54,67.41-171.08,18.09-45.08,40.41-153.45,104.78-148.19,79.11,6.45,72.24,125,57,167.67-22.22,62-125.7,223.74-148.29,244.2-43,39-79.83,20.79-130.47,14.61-28.53-3.48-127.65-8.87-151.85-25.62-22-15.22-13.72-50.27,11.9-54.47C1540.91,1345.33,1701.58,1335.14,1722,1319.59Z"/><path d="M1675.71,2231.06l-7.08-.86a74.74,74.74,0,0,1,11.55,2.68A9.49,9.49,0,0,0,1675.71,2231.06Z"/><path d="M1667.58,2230.08l1.05.12Z"/><path class="cls-46" d="M2049.6,567s-23.2-46.14-93.46-35.76c-34.72,5.13-66.19,12.57-107,68.33-101.45,138.66,65.54,390.26,6.92,489-7,11.76-13.09,22.85-18.42,33.34-28-7.38-26.29-24.89-18.09-35.75,2.92-3.86,8-7.19,12.76-7.27,7-.11,13.46,4.19,13.58,3.22.27-2.17-5.46-18.29-25.08-14.58-7.47,1.41-20.14,11.69-23.91,25.28-5.73,20.71.73,41.39,22.68,57a33.21,33.21,0,0,0,4,2.44c-57.4,140.29,50.8,145.74,87.77,132.35,26.74-9.68,30.06-28.07,22-31.53-10.75-4.6-29.15,8.63-48.12,1.73-15.74-5.72-34.52-20.14-12.62-68.55a309.35,309.35,0,0,1,17.68-32.65c38-12.57,79-48.93,94.55-131.62,5.35-28.38,25.25-98.52.44-206.85"/><path class="cls-46" d="M1885.69,590.18s19.71-40.06,51.86-54.24C1999,508.83,2125.74,518,2176,624c73.66,155.22,32.61,370.15,100,455.67,58.6,74.38-173,148.62-185.4,189.19s-16.74-7-38.64-55.38-52-102-45-161.94c5.53-47.35-16.61-51.42-16.61-51.42"/><path class="cls-17" d="M1985.3,815.21c24.81,108.33,4.91,178.47-.44,206.85-27.95,148.29-137.51,147.64-165.27,127.83-21.95-15.65-28.41-36.33-22.68-57,3.77-13.59,16.44-23.87,23.91-25.28,19.62-3.71,25.35,12.41,25.08,14.58-.12,1-6.63-3.33-13.58-3.22-4.76.08-9.84,3.41-12.76,7.27-8.35,11.06-10,29,19.66,36.16,24.56,5.9,94.09-14,80-116"/><path class="cls-22" d="M1902,906.8c-2.69-12.33-3.37-17.55-6.78-24.84"/><path class="cls-22" d="M1908.69,943.9c-1-6.4-2.06-13.22-3.29-20"/><path class="cls-22" d="M1913.37,979.69s-.73-6.93-2.09-17.35"/><path class="cls-17" d="M2121.33,639.48s53.61,44.45,47.13,145.45"/><path class="cls-17" d="M1944.37,736.63s-7.31,149.08,22.67,193"/><path class="cls-47" d="M1822.55,1067.29s-30.38,3.4-26.08,32.83,6.79,11.6,15.19-3.86,12.79-19.68,22.47-19.72S1844.37,1060,1822.55,1067.29Z"/><path class="cls-47" d="M1841.82,633.48c5.23-16,22.76-42.92,27.57-48.83,24.85-30.57,2-15-24.74,21.43-34.46,46.89-48.59,81.47-2.58,270.57,12.34,50.71,30,111.64,30,145.78,0,11.32-10,49.57-13.83,62.33-4.22,13.87,31.85-7.91,31.78-55.81,0-39.52-17.74-113.5-32-173.12C1842.78,792,1827.26,677.87,1841.82,633.48Z"/><path class="cls-17" d="M1956,529.45c-34.72,5.13-66,14.38-106.83,70.14-101.45,138.66,65.54,390.26,6.92,489-7,11.76-13.09,22.85-18.42,33.34-28-7.38-26.29-24.89-18.09-35.75,2.92-3.86,8-7.19,12.76-7.27,7-.11,13.46,4.19,13.58,3.22.27-2.17-5.46-18.29-25.08-14.58-7.47,1.41-20.14,11.69-23.91,25.28-5.73,20.71.73,41.39,22.68,57a33.21,33.21,0,0,0,4,2.44c-57.4,140.29,50.8,145.74,87.77,132.35,26.74-9.68,30.06-28.07,22-31.53-10.75-4.6-29.15,8.63-48.12,1.73-15.74-5.72-34.52-20.14-12.62-68.55a309.35,309.35,0,0,1,17.68-32.65c38-12.57,79-48.93,94.55-131.62"/><path class="cls-48" d="M2138.76,2370.83a31.16,31.16,0,1,1,31.15-31.16A31.21,31.21,0,0,1,2138.76,2370.83Z"/><path class="cls-48" d="M1814.94,2370.83a31.16,31.16,0,1,1,31.15-31.16A31.22,31.22,0,0,1,1814.94,2370.83Z"/><rect class="cls-46" x="2093.61" y="2047.03" width="55.02" height="213.31"/><path class="cls-49" d="M2145.78,2233.9h-49.33a12.44,12.44,0,0,0-12.44,12.44v22.49l-251.52,14.62a34.6,34.6,0,0,0-32.58,34.53h642.41a34.58,34.58,0,0,0-32.58-34.53l-251.52-14.62v-22.5A12.44,12.44,0,0,0,2145.78,2233.9Z"/><path class="cls-49" d="M2153.27,2125.81H2089a12.31,12.31,0,0,1-12.31-12.31v-71.78h88.92v71.78A12.3,12.3,0,0,1,2153.27,2125.81Z"/><path class="cls-49" d="M2173.49,2058H2068.74a14.08,14.08,0,0,1-14.08-14.08V1942.38h132.91v101.53A14.08,14.08,0,0,1,2173.49,2058Z"/><path class="cls-49" d="M2239.28,1942.38H2002.63a60.06,60.06,0,0,1-60.06-60.06h356.77A60.06,60.06,0,0,1,2239.28,1942.38Z"/><path class="cls-42" d="M2451.11,2339.67a31.16,31.16,0,1,1-62.31,0h62.31Z"/><path class="cls-42" d="M2420,2308.52a31.22,31.22,0,0,1,31.16,31.15H2388.8A31.21,31.21,0,0,1,2420,2308.52Z"/><path class="cls-42" d="M2138.76,2308.52a31.21,31.21,0,0,1,31.15,31.15h-62.3A31.21,31.21,0,0,1,2138.76,2308.52Z"/><path class="cls-42" d="M1814.94,2308.52a31.21,31.21,0,0,1,31.15,31.15h-62.31A31.21,31.21,0,0,1,1814.94,2308.52Z"/><path class="cls-50" d="M2146,965.32h-16.48a63.66,63.66,0,0,0-45.24,18.87h0a63.62,63.62,0,0,0-17,31.26L1946.29,1572l22.39,179.1H1761.92a65.62,65.62,0,0,0-65.62,65.62h0a65.62,65.62,0,0,0,65.62,65.63h308.45Z"/><path class="cls-43" d="M2506.77,1882.32h-436.4a30.48,30.48,0,0,1-30-24.87L1997.64,1618a173.64,173.64,0,0,1,.73-67.76l117.84-560.73A30.47,30.47,0,0,1,2146,965.32h363.29a30.49,30.49,0,0,1,30.36,33.29l-50.37,545.66a30.5,30.5,0,0,0,.28,7.81l47.24,294.74A30.48,30.48,0,0,1,2506.77,1882.32Z"/></svg>